<svg xmlns="http://www.w3.org/2000/svg" xmlns:xlink="http://www.w3.org/1999/xlink" viewBox="0 0 831 768"><defs><style>.cls-1{isolation:isolate;}.cls-2,.cls-3{fill:#27deee;}.cls-2{opacity:0.1;}.cls-4{fill:#012e3a;}.cls-5{fill:#dfe5e8;mix-blend-mode:multiply;}.cls-6{fill:#253137;}.cls-7{fill:url(#linear-gradient);}.cls-8{fill:url(#linear-gradient-2);}.cls-9{fill:url(#linear-gradient-3);}.cls-10{fill:#222a72;}.cls-11{fill:#161e51;}.cls-12{fill:#f9567d;}.cls-13{fill:#d84c74;}.cls-14{fill:url(#linear-gradient-4);}.cls-15{fill:#28e0e8;}.cls-16{fill:#64f0f4;}.cls-17{fill:#181a19;}.cls-18{fill:#28cece;}.cls-19{fill:url(#linear-gradient-5);}.cls-20{fill:url(#linear-gradient-6);}.cls-21{fill:url(#linear-gradient-7);}.cls-22{fill:url(#linear-gradient-8);}.cls-23{fill:#f490ad;}.cls-24{fill:url(#linear-gradient-9);}.cls-25{fill:#fdfdff;}.cls-26{fill:url(#linear-gradient-10);}.cls-27{fill:#403f67;}.cls-28{fill:url(#linear-gradient-11);}.cls-29{fill:#fff;opacity:0.13;}.cls-30{fill:none;}</style><linearGradient id="linear-gradient" x1="452.68" y1="280.47" x2="481.97" y2="280.19" gradientUnits="userSpaceOnUse"><stop offset="0" stop-color="#ecc4d7"/><stop offset="0.42" stop-color="#efd4d1"/><stop offset="1" stop-color="#f2eac9"/></linearGradient><linearGradient id="linear-gradient-2" x1="452.83" y1="295.24" x2="482.11" y2="294.96" xlink:href="#linear-gradient"/><linearGradient id="linear-gradient-3" x1="452.41" y1="252.25" x2="481.69" y2="251.97" xlink:href="#linear-gradient"/><linearGradient id="linear-gradient-4" x1="473.03" y1="262.15" x2="425.73" y2="283.83" xlink:href="#linear-gradient"/><linearGradient id="linear-gradient-5" x1="376.67" y1="434.43" x2="267.19" y2="348.56" xlink:href="#linear-gradient"/><linearGradient id="linear-gradient-6" x1="351.61" y1="340.64" x2="416.81" y2="340.64" xlink:href="#linear-gradient"/><linearGradient id="linear-gradient-7" x1="393.26" y1="342.5" x2="980.32" y2="518.62" xlink:href="#linear-gradient"/><linearGradient id="linear-gradient-8" x1="350.45" y1="287.95" x2="430.23" y2="287.95" xlink:href="#linear-gradient"/><linearGradient id="linear-gradient-9" x1="344.38" y1="386.1" x2="384.19" y2="386.1" xlink:href="#linear-gradient"/><linearGradient id="linear-gradient-10" x1="203.92" y1="582.68" x2="235.14" y2="613.9" xlink:href="#linear-gradient"/><linearGradient id="linear-gradient-11" x1="289.75" y1="547.49" x2="320.14" y2="547.49" xlink:href="#linear-gradient"/></defs><title>rabbit look at sky</title><g class="cls-1"><g id="Layer_1" data-name="Layer 1"><ellipse class="cls-2" cx="404.9" cy="530.75" rx="183.13" ry="317.2" transform="translate(-128.04 932.76) rotate(-89.69)"/><path class="cls-3" d="M610.69,439c-3.64,2.35-7.86,3.61-12,5a213.9,213.9,0,0,0-42.55,19.41c.55-7.08,5.1-13.36,10.76-17.64,5.9-4.46,12.7-7.71,20-8.23C594.47,436.93,604.27,433.23,610.69,439Z"/><polygon class="cls-4" points="571.13 386.1 491.74 403.21 488.64 430.5 508.64 462.16 571.13 386.1"/><path class="cls-5" d="M489.57,444.81c-1.3.66-.29,11.39.65,12.43,3.36,3.73,9,.84,13.49-.27,11.38-2.77,22.29-7.42,33.14-11.71,21.15-8.35,43.23-17.49,66.47-14.69,8.27,1,16.59,3.66,22.81,9.19,2.24,2,4.31,4.95,3.35,7.79a8.09,8.09,0,0,1-3,3.54c-12.14,9.43-28.07,11.94-42.73,16.6-18.79,6-41.16,16.61-53.79,32.21-11.76,14.52-19.06,18.92-38.33,22.78-32.46,6.49-76.92-1.09-91.32-33.48-1.37-3.09,9.73-30.79,10-36.47C437.34,465.65,462,458.88,489.57,444.81Z"/><path class="cls-6" d="M403.68,292.32c-9.84-1.68-20.81,11.45-22.51,21-3.22,18,5.59,76.22,14.65,84,17.69,15.16,61.94-17.92,61.94-17.92Z"/><path class="cls-7" d="M419.84,293.07l7.36-35.4c.06-5.07,1.37-10.92,6.85-11.57,6.08-.71,22.37,13.16,23.14,18.89l-2.26,35.65c.05.31,4,14,4,14.34C449.57,312.51,411.23,305.79,419.84,293.07Z"/><path class="cls-8" d="M465.11,291.48c1.72-.74,3.74-1.23,4.78-2.8a4.4,4.4,0,0,0-.63-5.22,7,7,0,0,0-5.13-2,17.93,17.93,0,0,0-5.54,1.09c-2.89.93-5.9,2.13-7.69,4.58a12.82,12.82,0,0,0-2,7.23,32.89,32.89,0,0,0,.65,7.73,10.39,10.39,0,0,0,2.4,5.31c1.16,1.17,4.33,2.52,5.24.49.64-1.43-.36-4.58,0-6.34A14.09,14.09,0,0,1,465.11,291.48Z"/><path class="cls-9" d="M407.43,241.63a131.67,131.67,0,0,1,8.7-19c2.28-3.38,1.49-3.65,4.05-6.8,27.66-6.57,59.52,7.32,60.61,44.08.12,4.44,4,23.73-4.18,27.24-23.71,10.26-14.86-8.72-17.36-5.41-4.3,5.59-17.88,6.54-23.71-.14a41,41,0,0,1-11-2.87C419.21,266.17,414.19,253.46,407.43,241.63Z"/><path class="cls-10" d="M499.47,430.29c19.7-15.33,39.16-30.73,63.22-37.28,11.85-3.21,28.74-15.71,39.42-6.75,6.94,5.83,10.12,24.62,4.8,31.34-16.35,20.68-42.4,39.26-64,53.58-13.13,8.7-37,25.21-53.82,17.32-15.35-7.21-13.36-31.52-13.46-45.39Z"/><path class="cls-4" d="M423.5,430.71c12.09-21.84,28.84-40.18,48.39-55.63,9.65-7.62,23-18.74,36.35-14.69,8.68,2.65,11.37,8.23,9.11,16.49-6.93,25.44-23.6,52.75-37.84,74.39-8.67,13.17-24.19,37.72-42.71,37.05-16.94-.59-24.66-23.74-30.19-36.45Z"/><path class="cls-10" d="M458.88,269.66c-2.25-17.36-21.63-33.45-9.22-49.57l-6.45-11.82c-32.65,5-52.93,41.5-17,68.47,13.19,9.9,13.94,11.83,22.18,10.64,8.82-1.82,4.84,2.82,8.65-5.45,3.63-7.88,1.08-16.18-.5-24.23-.78-4-.66-8.69,2.34-11.46,1.63-1.5,4.07-2.42,4.71-4.54a1.41,1.41,0,0,0-.11-1.24,1.53,1.53,0,0,0-.66-.45c-4.56-2.1-9.91-1.3-14.74.09-2.31.67-4.77,1.59-6,3.64a6.84,6.84,0,0,0-.5,5.55,15.46,15.46,0,0,0,2.86,5,42.56,42.56,0,0,0,5.93,6.15c3.08,2.62,6.74,5.11,7.81,9"/><path class="cls-11" d="M443.07,247.48c-.6-5-2.12-10.94-6.94-12.23a19.93,19.93,0,0,0-4.37-.31c-3.37-.13-6.68-1.2-10.05-1.08a14.73,14.73,0,0,0-13.66,13.69c-.15,4.22,1.57,8.26,3.26,12.13l4.29,9.84a29.45,29.45,0,0,0,3.65,6.71c2.82,3.55,7.11,5.58,11.28,7.37,3.32,1.43,8.81,4,12.54,2.78,4-1.35,3.18-4.89,2.93-8.44C445.3,267.76,444.3,257.6,443.07,247.48Z"/><path class="cls-10" d="M408.58,236.09c8.62,6.47,18.83,9.34,29.45,9.36a67.94,67.94,0,0,0,28.47-6.52,69.24,69.24,0,0,0,9.55-5.21,7.8,7.8,0,0,0,1.37-1.51c4.61-5.83.25-14.08-9.87-19.42l0-.06a48,48,0,0,0-9.85-3.62C430.73,202.51,407.78,217.58,408.58,236.09Z"/><path class="cls-12" d="M508.64,462.16c-3.13,53.7-86.78,45.33-101.18,25.18-1-12.4.91-47.15.91-47.74.2-25.83-2.59-40.84-10.81-70.27-7.27-26.1-24.84-54-.77-74.44,4.26-3.62,13.94-3.37,23.83-1.84.85,8.17,11,13.31,18.47,13.71.31,0,.58,0,.88,0s.89.08,1.33.1a28.69,28.69,0,0,0,15.9-3.68c14.14,6,26.8,14.39,33.38,20,3.73,3.19,5.68,5.55,6.56,7.44,2.31,4.94-2.61,6.72-2.12,12,.35,3.91.6,7.52.78,10.89h0c.9,17.54-.1,28.81,2.36,44.47a164.5,164.5,0,0,0,4,18.33C502.6,417.79,507.45,457.15,508.64,462.16Z"/><path class="cls-13" d="M441.31,307.68a34,34,0,0,0,2.56,17.68c1.69,3.86,4.15,7.65,4,11.87-.16,4.72-3.52,8.64-6.7,12.13,3.9,2.66,5.93,7.31,7.21,11.86a60.3,60.3,0,0,1-3.53,41.69c-11.42,24.06-4.05,51.93-6,78.49a14.85,14.85,0,0,1-1.1,5.42c-2.23,4.61-8.24,5.6-13.35,6-4,.32-8.34.55-11.68-1.67-5.73-3.82-5.28-12.19-4.44-19,3.5-28.6,2.39-57.55.44-86.29-1.4-20.75-3.15-42.2,3.81-61.8,2-5.66,5.41-11.65,11.23-13.11C428.93,309.65,438.09,311.94,441.31,307.68Z"/><path class="cls-12" d="M582.77,400.39c-15.41,8.72-31.15,24.81-50.21,19.83-3.5-.92-6.81-3.29-10-6.32-6.54-3.36-17.61-10.8-24.43-15.86-1.88-1.4-3.44-2.61-4.5-3.51-16.06-13.67-27.38-24.4-30.93-47.93-1.31-8.73-2.29-21.84,7.57-25.53a12.2,12.2,0,0,1,1.68-.52c8.61-2.08,17.88,3.83,25.16,10.08,2.58,2.21,4.9,4.46,6.86,6.41,11.11,11,28.46,43.18,33.21,43.06,19-.19,44.91-17.67,59.11-4.43a19.28,19.28,0,0,1,2.13,2.33C605.43,387,588.68,397.05,582.77,400.39Z"/><path class="cls-14" d="M461.87,265.47c-3.82-10.59-11.06-5.44-11.61-1.26-.61,5.62,5.6,14,12.27,14.07C462.19,271.58,463,268.49,461.87,265.47Z"/><path class="cls-15" d="M238.78,148.23c0-10.75,5.93-23.32,14.24-31.61a20.81,20.81,0,0,1-.38-4.08c0-12.06,8.53-26.77,19-32.84a18.53,18.53,0,0,1,7.16-2.53c8-11.73,18-21.75,28.93-28,8.09-4.68,15.71-6.74,22.37-6.47a65.77,65.77,0,0,1,19-17.41c9.33-5.39,17.8-6.06,24.06-2.84a36.51,36.51,0,0,1,7.62-6c10.66-6.16,19.53-2.45,21.36,8.12a26.38,26.38,0,0,1,4.39-3.24c8.86-5.11,16-1,16,9.15,0,9.19-5.86,20.19-13.53,26,.05.84.08,1.7.08,2.59,0,22.13-15.64,49.1-34.92,60.23-5.55,3.21-10.8,4.75-15.46,4.79-3.55,10.27-10.93,20.18-19.46,25.11-7.81,4.51-14.66,3.72-18.48-1.17a77.12,77.12,0,0,1-13.05,9.64c-9.77,5.64-18.85,7.47-26.38,6a29.72,29.72,0,0,1-9.35,9.07c-8.43,4.87-15.27,1-15.27-8.71,0-.54,0-1.1.06-1.65C246.59,166.27,238.78,160.55,238.78,148.23Z"/><path class="cls-16" d="M247.71,153.55c0-10.75,5.93-23.33,14.23-31.62a21.47,21.47,0,0,1-.37-4.08c0-12.06,8.53-26.77,19-32.83a18.52,18.52,0,0,1,7.15-2.54c8-11.72,18-21.74,28.94-28,8.09-4.67,15.7-6.74,22.36-6.47a66.22,66.22,0,0,1,19-17.41c9.33-5.38,17.79-6.06,24.06-2.84a36.84,36.84,0,0,1,7.62-6c10.66-6.16,19.53-2.45,21.36,8.13a25.77,25.77,0,0,1,4.38-3.24c8.87-5.12,16-1,16,9.15,0,9.19-5.87,20.19-13.53,26,.05.85.07,1.71.07,2.6,0,22.13-15.63,49.09-34.92,60.23-5.54,3.2-10.8,4.74-15.45,4.79-3.55,10.26-10.93,20.17-19.47,25.1-7.81,4.51-14.65,3.73-18.47-1.17A76.83,76.83,0,0,1,316.7,163c-9.78,5.64-18.85,7.47-26.38,6A29.89,29.89,0,0,1,281,178c-8.44,4.88-15.28,1-15.28-8.71,0-.54,0-1.09.07-1.65C255.51,171.59,247.71,165.87,247.71,153.55Z"/><ellipse class="cls-15" cx="331.49" cy="191.69" rx="14.94" ry="8.63" transform="translate(-1.3 381.12) rotate(-59.69)"/><ellipse class="cls-16" cx="336.16" cy="194.42" rx="14.94" ry="8.63" transform="translate(-1.34 386.5) rotate(-59.69)"/><ellipse class="cls-15" cx="349.53" cy="225.67" rx="11.17" ry="6.45" transform="translate(-21.69 413.53) rotate(-59.69)"/><ellipse class="cls-16" cx="353.02" cy="227.71" rx="11.17" ry="6.45" transform="translate(-21.73 417.55) rotate(-59.69)"/><path class="cls-5" d="M425.53,534.66a8.35,8.35,0,0,1-.07,1.33c-45.95,37.2-108.94,37.8-153.19,76.42-8.09,7.06-15.45,15-24,21.5a97.13,97.13,0,0,1-60.8,19.84c-2.87-5.13,1-11.39,5.22-15.5,19.55-19.06,49.23-25.89,66.63-46.93,9.35-11.31,13.94-25.42,17.14-39.51,2.47-10.87-.09-22.2,6.32-31.56,13.79-20.13,46.67-24.82,68.82-24.82C392.44,495.43,425.53,513,425.53,534.66Z"/><path class="cls-17" d="M325.2,508.79A56.16,56.16,0,0,0,345.72,529c23.72,13.73,48.84,10.91,60.4-9,9-15.53,5.23-43.87-8.21-58.44-3.8-4.13-5.15-1.64-10.36-4.68-23.72-13.75-52.29-8.75-63.84,11.17C316.49,480.48,317.63,495.72,325.2,508.79Z"/><path class="cls-17" d="M338.54,496.62c-10.71,21.8-71,7.55-93.56,4-7-1.11-31.65-15-20.71-28.2,6.1-7.4,27.48-14.68,36-16.47,15-3.2,78.8-16.07,85.19,5.38C349.64,475.5,346.33,480.77,338.54,496.62Z"/><path class="cls-3" d="M353.58,325.93c-25.59-7.49-34.49,30.56-40.59,48.4-4.37,12.78-21.52,19.94-15.82,37.55,4.26,13.14,27.21,21.11,32-8.92a123.37,123.37,0,0,1,17.93-46.47Z"/><path class="cls-3" d="M370.49,482.69c-7.05-2.18-13.86-5.74-20.17-9-5.89-3.05-12.05-7.93-14.58-14.26-2.83-7.05,2.37-15.79,2.28-23.37-.07-5.86-1.64-11.86-5.29-16.44-2.69-3.37-6.35-5.83-9.14-9.1a23.72,23.72,0,0,1-4.85-21.05c1-3.77,2.89-7.23,4.61-10.74a216.07,216.07,0,0,0,8.95-22.11c1.83-5.09,2.62-10.57,5.09-15.42,3.36-6.58,13.09-18.64,21.88-14.27,4.42,2.19,17.43,5.36,27.73,10.34,12.09,5.82,25.77,14.94,31.18,20.46,9.54,9.7,13.76,20.54-2.58,50-16.05,29-14.45,24.64-14.45,31.69,0,6.83,3.53,30,3.53,30s.36.73.9,2c-3,9.79-13.26,13.29-22.44,13.29A41.94,41.94,0,0,1,370.49,482.69Z"/><path class="cls-18" d="M367.36,457.49l-.69,13.14c-.1,1.92-.28,4-1.64,5.4a6.12,6.12,0,0,1-3.8,1.53c-5.67.57-11-2.55-15.55-6-4.77-3.68-9.28-8.14-11.07-13.88-3.38-10.83,3.84-22.55,1.66-33.68-1.65-8.39-8.23-14.76-13.87-21.19-.88-1-1.8-2.21-1.59-3.53a5.1,5.1,0,0,1,1.89-2.67,25.7,25.7,0,0,0,7.87-18.47A47.74,47.74,0,0,0,357.75,406a14.35,14.35,0,0,0,6.29,1.27c5.39-.43,8.9-5.59,12.3-9.79a54.23,54.23,0,0,1,27.57-18l-18.41,25.1a46.72,46.72,0,0,0-4.74,7.4c-4.19,8.82-2.47,19.17-.66,28.77l15.54-4.32a4.13,4.13,0,0,1,2.4-.18c1.52.5,1.93,2.43,2,4,.45,9.87-1.62,15-11.26,18.4C386.74,459.37,367.13,461.9,367.36,457.49Z"/><path class="cls-3" d="M416.83,356.55a7.92,7.92,0,0,1,2.94.29c5.86,1.61,10.44,6.25,13,11.67,2.71,5.82,3.29,12.41,3.26,18.83,0,5.27-.48,10.71-2.91,15.39-2.2,4.23-5.82,7.5-8.95,11.09-5.34,6.13-9.32,13.32-14.5,19.59a65.47,65.47,0,0,1-9.84,9.64c-4.66,3.68-10.16,6.83-16.1,6.85-5.1,0-10-2.3-14-5.37a7.48,7.48,0,0,1-2.47-2.69c-1.07-2.31.16-5,1.36-7.23q14-26,27.88-52c3.23-6,6.49-12.11,10.81-17.44C410.19,361.51,412.48,357,416.83,356.55Z"/><path class="cls-19" d="M297.49,406.63a12.11,12.11,0,0,0,.1,7.15,13.17,13.17,0,0,0,4.72,7.4,17.64,17.64,0,0,0,5,2.22,153.82,153.82,0,0,0,69.12,5.38,2.65,2.65,0,0,0,1.64-.66c.5-.56.47-1.44.93-2,.93-1.17,2.83-.28,3.82.82s2.17,2.53,3.63,2.22,1.95-2.14,1.59-3.55-1.28-2.6-1.75-4l5.75,4.87c1.38-.55,1.23-2.54.73-3.94a30.54,30.54,0,0,0-4.07-7.7,14.86,14.86,0,0,0,6.23,5.08c1.8.11,3.12-1.94,2.93-3.74s-1.4-3.28-2.58-4.64c-2.7-3.11-5.93-6.28-10-6.69a6.92,6.92,0,0,0,2.79-6.55c-2.85-.09-5.39,1.65-8.06,2.65-3,1.11-12.84,10.39-16,10.58-19.15,1.12-33.44-13.06-52.44-15.66C306.27,395.15,299.7,400.16,297.49,406.63Z"/><path class="cls-20" d="M363.05,363.08c12.61,7.69,46.54-1.79,53.76-7.23-9.88-8.2-16.24-11.18-18.61-18.47a19.77,19.77,0,0,1-.94-4.76,45.72,45.72,0,0,1,.23-9.33l-1.7-.46-27.27-7.53s-.35,14.13-2.73,13.4c-1-.31-3-1.25-5.09-2-2.7-.92-5.7-1.54-7.75-.15C349.76,333.33,351.91,356.28,363.05,363.08Z"/><path class="cls-21" d="M360.7,326.74c.13.48.26.93.39,1.38,3.26,11.71,11.3,27.7,23.52,32.18,6.55,2.41,9.49-.69,11.35-7.34,1.08-3.74,2.54-10.47,2.24-15.58a12.6,12.6,0,0,0-.86-4.2c0-.18-.07-.36-.08-.56l-1.47-9.79-27.27-7.53s-.35,14.13-2.73,13.4C364.75,328.39,362.84,327.45,360.7,326.74Z"/><path class="cls-12" d="M413.39,253.29c-8.18-9.62-16.84-13.26-29.29-10.36-14.15,3.27-16,19.77-28.32,27.3-6,3.61-12.25,4.24-14.77,11.35-1.75,4.93.36,9.93-2.15,15-4.41,8.89-9.38,12.74,1.61,21.59,21.51,17.34,46.72-30,56.27-43.71Z"/><path class="cls-22" d="M402.92,320.71c-3.74,1.8-7.51,1.86-15.7,5.76-11,5.33-18.57,4.77-22.38,5.35-6.53,1-12.7-4.05-13.34-7.81-1.48-8.45-1.17-15.79-.42-24.28,1.8-19.94,11.32-37.38,16.18-45.62,15.39-11.53,28.52-14.33,48.91-2.68C439.45,264.71,433,306.05,402.92,320.71Z"/><path class="cls-23" d="M394,254.73l-.15.1s0,0,0,0c-.33.2-1.08.74-2,1.5-2.54,1.9-6.75,5.14-9.61,7.3a2.1,2.1,0,0,0-.38.3c-.34.2-.59.43-.88.63s-.83.62-1.12.85a5.11,5.11,0,0,1-.68.45,52.74,52.74,0,0,0-6.27.49c-6.92.88-11.23,3.19-14.38,7.94a34.47,34.47,0,0,0-4.21,9.46c-3.67,2.24-3.24,4.54-5.24,10-2.58,7.31-2.68,4.43-9.32,8.47-2.23,1.35-4.63,3-5.95,5.28-.65,1-1.15,2.46-.46,3.58a1.89,1.89,0,0,0,3.15-.47c-.76,8.2-10.43,1.16-5.5-8.09,1.85-3.44,5.24-4.25,6.84-6.71,2.83-4.46,1.69-5.37,2.18-10.87.48-5.9,4.17-11.11,10.26-14,2.17-1,6.08-9.13,12.21-15.6a3.31,3.31,0,0,1,.26-.27c4.33-4.46,9.7-8.11,16.33-8,7.64.09,13.92.86,14.85,5.75A6,6,0,0,1,394,254.73Z"/><path class="cls-23" d="M413.43,251.71c-2.75,5.1-24.49,10.7-36.09,10-3.37-.14-5.92-.86-6.86-2.27l-1.9-.8L361,257c8-9.45,16.89-14.56,23.66-15.08,10.57-.79,16.8,0,21.83,3.4C406.75,245.46,413.79,247.89,413.43,251.71Z"/><path class="cls-17" d="M294.56,545.55c-.09,0-.19,0-.27,0-15-12.77-31-24.87-39.27-31.92-6.93-5.91-23.87-17-28.63-24.53-4.28-6.72,1.67-13.35,1.22-20.9l17.06,2.12c14.92,4.44,24.75,7.2,34.7,18.51a382.75,382.75,0,0,1,28.71,37C307.72,534,302.31,543.78,294.56,545.55Z"/><path class="cls-23" d="M431.4,309.76a16.29,16.29,0,0,0-1.59,10.35c.58,3.25,2.13,6.24,3.18,9.37s1.56,6.68.11,9.65c-2.14,4.35-7.62,5.81-12.45,6s-9.93-.51-14.34,1.48a16.56,16.56,0,0,0-1.51.78c-2.2,1.25-4.28,2.81-6.78,3a6.79,6.79,0,0,1-7-5.26c-1-5.14,4.12-9.9,3.47-15.11a38.43,38.43,0,0,0-.95-4c-.44-1.79-.6-3.48.68-4.67a3.92,3.92,0,0,1,1-.62,14.08,14.08,0,0,1,1.45-.57,15.32,15.32,0,0,0,7.58-6.14c1.14-1.81,1.9-4,1.26-6.09s-3.16-3.52-5-2.49a3.06,3.06,0,0,0-.68.5,9,9,0,0,0-1.06,1.24l-4.83,6.46c-1.87-2.62.09-6.14.55-9.31.74-5.08-2.61-9.81-6.12-13.55s-7.55-7.46-8.74-12.46c-.66-2.75-.38-5.67-1-8.43-.91-3.83-3.75-3.53-5.41-6s-.21-6.69,1.14-8.84a17.26,17.26,0,0,1,7.57-6.16c5.69-2.61,12.09-3.17,18.34-3.4,4.68-.18,9.52-.16,13.86,1.62,5.61,2.32,9.64,7.27,13.32,12.09,4.63,6,9.19,12.27,11.69,19.45s2.67,15.5-1.24,22C435.91,303.86,433.12,306.47,431.4,309.76Z"/><path class="cls-12" d="M408.09,322.84c-3,4.57-7.65,8.61-7.86,14.07-.15,4.21,3.65,7.1,4.57,10.44-2.2,1.25-4.28,2.81-6.78,3a6.79,6.79,0,0,1-7-5.26c-1-5.14,4.12-9.9,3.47-15.11a38.43,38.43,0,0,0-.95-4,1.09,1.09,0,0,0,.09-.23c.61-1.64,1.07-3.37,1.58-5.06a14.08,14.08,0,0,1,1.45-.57,15.32,15.32,0,0,0,7.58-6.14c1.14-1.81,1.9-4,1.26-6.09s-3.16-3.52-5-2.49a3.06,3.06,0,0,0-.68.5,52.12,52.12,0,0,0-.39-32.09c4.19,2.12,5.48,7.49,5.51,12.19s-.67,9.63,1.31,13.89c1,2.24,2.76,4.11,3.84,6.33C412.63,311.5,411.27,318,408.09,322.84Z"/><path class="cls-24" d="M369.6,343.6c-.5-3.41-1.13-7.1-3.62-9.47-3.58-3.4-9.87-3-12.85-6.94-1-1.36-1.52-3.08-2.63-4.36s-3.36-1.9-4.44-.59a4.06,4.06,0,0,0-.66,2.28c-.42,5.22-.28,5.33-.7,10.55-.57,7.06-.89,14.94,3.67,20.37,1.66,2,3.88,3.47,5.21,5.67s1.11,10.08,1.35,12.7A458.56,458.56,0,0,1,356.84,420c-.07,7.29-.25,14.92,3,21.44s11.25,11.34,17.94,8.45c5.14-2.22,7.16-8.15,6.13-13.35-1.29-6.51-2.7-12.94-3.67-19.58l-6.77-46.54Z"/><path class="cls-25" d="M221.29,622.49c-.95,13.9-7.13,16.82-13.83,18.14-12,2.37-24.42,7.42-36.72,5.45-9.86-1.58-24-14.26-9-22.13,7.4-3.9,17.1-2.84,25.29-4.8C194.25,617.43,216.1,615.29,221.29,622.49Z"/><path class="cls-6" d="M224.46,619.41c-.94,13.9-7.1,16.8-13.83,18.15-12,2.37-25.26,8.36-37.55,6.37-9.87-1.59-25.75-13-10.73-20.86,7.4-3.88,19.67-5.05,27.87-7C197.42,614.36,221.38,602.4,224.46,619.41Z"/><path class="cls-26" d="M219.44,623.27c-3.9,1.79-42.92,16.54-44.56,2.29-.59-4.32,8.33-9.62,21.71-17,8.37-4.64,30.37-38.76,36.06-46,3.68-4.64,7.22-9.35,10.8-14.15q-3.13,4.15-6.26,8.32c1.83,10.65,12,17.82,22,19.22-10.14,8.64-28.79,24.68-34.73,29.36C217.65,611.28,225.14,618,219.44,623.27Z"/><path class="cls-27" d="M298.85,534a17.09,17.09,0,0,0,.84-1.9c5.29-14.1,4.35-14.32,6.88-29.63V485.22c-7.41,1.43-19.24,1.66-25.39,6.71-7,5.8-11.33,18.74-16.27,26.22-2.82,4.32-5.8,8.56-8.78,12.79q-6.3,8.91-12.67,17.44-3.13,4.15-6.26,8.32c1.83,10.65,12,17.82,22,19.22a13,13,0,0,0,2.45.36,63.5,63.5,0,0,0,6.61-6.08c12.25-9.27,24.31-23.42,29.65-34.18A19.55,19.55,0,0,0,298.85,534Z"/><path class="cls-27" d="M306.56,485.22l94.81-6.4s15.09,47.14-17.16,54.59-90.43-6.34-90.43-6.34Z"/><path class="cls-28" d="M292.31,556.23c-1.42,2.37-3.28,5.07-2.27,7.64a8.84,8.84,0,0,0,6.73-.32,25.19,25.19,0,0,0,5.77-3.78c3.46-2.76,6.93-5.62,9.35-9.33a25.89,25.89,0,0,1,2.89-4.18c1.08-1.1,2.44-1.88,3.57-2.93a4.7,4.7,0,0,0,1.74-4.06c-.31-1.66-1.89-2.73-3.35-3.59q-3.83-2.26-7.76-4.31a4.72,4.72,0,0,0-2.72-.76,4.79,4.79,0,0,0-2.41,1.5c-3.07,2.91-8.94,6.57-8.7,11.2C295.41,548.17,295,551.77,292.31,556.23Z"/><path class="cls-27" d="M312,545.51c-4.65,4.26-9.42,8.6-15.21,11.11a17.12,17.12,0,0,0-4.35,2.26,12.48,12.48,0,0,0-2.62,3.56c-1.87,3.36-3.6,6.81-5.17,10.32-1.39,3.11-3.6,9.39-1.82,12.31,2.89,4.74,8.28,4.83,11.92,1.79,5.26-4.38,9.71-7.79,13.24-11.53l14.34-15.15c2.8-3,8.52-6.15,9.22-10.16s-4.2-8.54-7.68-10.64C319,536.45,315.39,542.36,312,545.51Z"/><path class="cls-6" d="M308.46,561.16c-4.77,3-10.26,4.74-15.13,7.58S284,576,283.54,581.55a6.85,6.85,0,0,0,1,4.54c1.65,2.31,5.11,2.8,7.83,1.88,3.06-1,5.28-3.38,7.58-5.49,2.77-2.54,5.67-5,8.5-7.47l19-16.71a13.18,13.18,0,0,0,3.39-3.91,8.58,8.58,0,0,0,0-6.6,3.51,3.51,0,0,0-1.09-1.67,3.17,3.17,0,0,0-1.71-.53,8.41,8.41,0,0,0-5.74,2c-2.41,2-3.93,4.85-6.1,7.08A43,43,0,0,1,308.46,561.16Z"/><path class="cls-29" d="M480.13,407.05c-2.83-7.09-6.78-14.25-6-21.85.09-.89.36-1.92,1.19-2.25a2.56,2.56,0,0,1,1.83.2c11.95,4.49,20.55,15.54,24.84,27.57s4.8,25.06,4.64,37.83c-.12,9.87-.82,20.94-6.11,29.59-4.85,7.94-16.43,17.57-17.55,3.23-.94-12,3.64-25.45,3.57-37.77S484.76,418.67,480.13,407.05Z"/><path class="cls-30" d="M596.32,375.67c-7.92,4.23-16.65,7.11-25.23,9.9-5.63,1.83-11.26,3.67-16.93,5.39-6,1.84-12.49,3.55-18.63,2-6.4-1.58-11.43-6.4-16-11.1-8.64-8.78-17.12-17.95-23.68-28.33h0a90.25,90.25,0,0,1-4.62-8.2c-2.27-4.58-4.14-9.43-7.28-13.46-3.58-4.6-8.55-7.85-13.6-10.83l-1.8-1a159.94,159.94,0,0,0-19.78-10.19c-1.74-.71-5.74-1.32-7.42-3a28.69,28.69,0,0,0,15.9-3.68c14.14,6,26.8,14.39,33.38,20,3.73,3.19,5.68,5.55,6.56,7.44,2.58,2.21,4.9,4.46,6.86,6.41,11.11,11,28.46,43.18,33.21,43.06C556.21,379.91,582.12,362.43,596.32,375.67Z"/><path class="cls-10" d="M607.32,438.46c-6.88,0-13.5,2.75-19.3,6.44-3.51,2.23-6.82,4.83-10.62,6.53-3.51,1.57-7.32,2.32-11,3.54s-7.27,3-9.54,6.14a6,6,0,0,0-1.06,2.13c-.49,2.22,1.16,4.5,3.26,5.38a11,11,0,0,0,6.71.1,27.4,27.4,0,0,0,9.89-4.61c.95-.71,1.85-1.48,2.86-2.1,2.37-1.48,5.16-2.09,7.86-2.82a84.73,84.73,0,0,0,15.17-5.68,21.89,21.89,0,0,0,7.21-5C611.38,445.53,613.21,438.47,607.32,438.46Z"/></g></g></svg>