<?xml version="1.0" encoding="utf-8"?>
<!-- Generator: Adobe Illustrator 20.1.0, SVG Export Plug-In . SVG Version: 6.00 Build 0)  -->
<svg version="1.1" id="NAME_1_" xmlns="http://www.w3.org/2000/svg" xmlns:xlink="http://www.w3.org/1999/xlink" x="0px" y="0px"
	 viewBox="0 0 218.6 55.4" style="enable-background:new 0 0 218.6 55.4;" xml:space="preserve">
<style type="text/css">
	.st0{fill-rule:evenodd;clip-rule:evenodd;fill:#0C0A3E;}
</style>
<g id="NAME">
	<g>
		<path class="st0" d="M43.6,38.1l-7.3-23.3H27L19.8,38l-6.1-23.1h-11l11.7,38.4h9.7l7.5-23.4L39,53.3h9.8l11.9-38.4H49.9L43.6,38.1
			z M87.3,14.2c-6.4-0.3-10,3.1-12.2,8.4v-7.7H64.3V53h10.8V39c0-9.1,4.4-13.5,11.6-13.5h0.6V14.2z M105.3,14.5
			c-6.5,0-10.6,1.2-14.8,3.1l2.7,8.3c3.5-1.3,6.4-2.1,10.5-2.1c5.4,0,8.2,2.5,8.2,7v0.6c-2.7-0.9-5.5-1.6-9.3-1.6
			c-9,0-15.4,3.8-15.4,12.2v0.1c0,7.5,5.9,11.7,13.1,11.7c5.3,0,8.9-1.9,11.5-4.8V53h10.5V30.9c0-5.1-1.3-9.3-4.1-12.2
			C115.4,16,111.2,14.5,105.3,14.5z M112,39.6c0,3.9-3.4,6.7-8.5,6.7c-3.5,0-5.9-1.7-5.9-4.6v-0.1c0-3.4,2.8-5.3,7.5-5.3
			c2.6,0,5.1,0.6,6.9,1.4V39.6z M151.4,14.2c-5.6,0-9.3,2.6-11.9,6.2V1.1l-10.8,2.1V53h10.8v-5c2.6,3.1,6.1,5.7,11.9,5.7
			c9,0,17.4-7,17.4-19.7v-0.1C168.8,21.2,160.3,14.2,151.4,14.2z M158,34c0,6.4-4.3,10.5-9.3,10.5s-9.3-4.2-9.3-10.5v-0.1
			c0-6.3,4.2-10.5,9.3-10.5s9.3,4.2,9.3,10.5V34z M174.2,15.2h11.4V5.6l-11.4,2.1V15.2z M174.4,53h10.8V19.4h-10.8V53z M214.2,24.1
			v-9.3h-9V5.1l-10.8,2.1v7.6h-4.6v9.3h4.6v18.1c0,8.8,4.5,11.5,11.1,11.5c3.6,0,6.3-0.9,8.5-2.2v-8.7c-1.6,0.9-3.3,1.4-5.3,1.4
			c-2.4,0-3.5-1.2-3.5-3.7V24.1H214.2z"/>
	</g>
</g>
</svg>
