<svg id="Layer_1" data-name="Layer 1" xmlns="http://www.w3.org/2000/svg" xmlns:xlink="http://www.w3.org/1999/xlink" viewBox="0 0 831 768"><defs><style>.cls-1{fill:#27deee;}.cls-1,.cls-3{opacity:0.1;}.cls-2,.cls-3{fill:#28dfec;}.cls-10,.cls-11,.cls-12,.cls-13,.cls-14,.cls-15,.cls-16,.cls-17,.cls-18,.cls-19,.cls-2,.cls-20,.cls-21,.cls-22,.cls-23,.cls-24,.cls-25,.cls-26,.cls-27,.cls-28,.cls-29,.cls-3,.cls-30,.cls-31,.cls-32,.cls-33,.cls-34,.cls-35,.cls-36,.cls-37,.cls-38,.cls-39,.cls-4,.cls-40,.cls-41,.cls-42,.cls-43,.cls-44,.cls-45,.cls-46,.cls-47,.cls-48,.cls-49,.cls-5,.cls-50,.cls-51,.cls-52,.cls-53,.cls-54,.cls-55,.cls-56,.cls-57,.cls-58,.cls-6,.cls-68,.cls-69,.cls-7,.cls-70,.cls-71,.cls-72,.cls-73,.cls-74,.cls-75,.cls-76,.cls-77,.cls-78,.cls-79,.cls-8,.cls-80,.cls-9{fill-rule:evenodd;}.cls-2{opacity:0.38;}.cls-26,.cls-27,.cls-28,.cls-29,.cls-30,.cls-31,.cls-32,.cls-33,.cls-34,.cls-35,.cls-36,.cls-37,.cls-38,.cls-39,.cls-4,.cls-40,.cls-41,.cls-42,.cls-43,.cls-44,.cls-45,.cls-46,.cls-47,.cls-48,.cls-49,.cls-50,.cls-51,.cls-52,.cls-53,.cls-54,.cls-55,.cls-56,.cls-57,.cls-58{fill:none;stroke-miterlimit:10;stroke-width:0.95px;}.cls-4{stroke:url(#linear-gradient);}.cls-5{fill:#64f0f4;}.cls-6{fill:url(#linear-gradient-2);}.cls-7{fill:url(#linear-gradient-3);}.cls-8{fill:url(#linear-gradient-4);}.cls-9{fill:url(#linear-gradient-5);}.cls-10,.cls-60{fill:#fff;}.cls-11{fill:url(#linear-gradient-6);}.cls-12{fill:url(#linear-gradient-7);}.cls-13{fill:url(#linear-gradient-8);}.cls-14{fill:url(#linear-gradient-9);}.cls-15{fill:url(#linear-gradient-10);}.cls-16{fill:url(#linear-gradient-11);}.cls-17{fill:url(#linear-gradient-12);}.cls-18{fill:url(#linear-gradient-13);}.cls-19{fill:url(#linear-gradient-14);}.cls-20{fill:url(#linear-gradient-15);}.cls-21{fill:url(#linear-gradient-16);}.cls-22{fill:url(#linear-gradient-17);}.cls-23{fill:url(#linear-gradient-18);}.cls-24{fill:url(#linear-gradient-19);}.cls-25{fill:url(#linear-gradient-20);}.cls-26{stroke:url(#linear-gradient-21);}.cls-27{stroke:url(#linear-gradient-22);}.cls-28{stroke:url(#linear-gradient-23);}.cls-29{stroke:url(#linear-gradient-24);}.cls-30{stroke:url(#linear-gradient-25);}.cls-31{stroke:url(#linear-gradient-26);}.cls-32{stroke:url(#linear-gradient-27);}.cls-33{stroke:url(#linear-gradient-28);}.cls-34{stroke:url(#linear-gradient-29);}.cls-35{stroke:url(#linear-gradient-30);}.cls-36{stroke:url(#linear-gradient-31);}.cls-37{stroke:url(#linear-gradient-32);}.cls-38{stroke:url(#linear-gradient-33);}.cls-39{stroke:url(#linear-gradient-34);}.cls-40{stroke:url(#linear-gradient-35);}.cls-41{stroke:url(#linear-gradient-36);}.cls-42{stroke:url(#linear-gradient-37);}.cls-43{stroke:url(#linear-gradient-38);}.cls-44{stroke:url(#linear-gradient-39);}.cls-45{stroke:url(#linear-gradient-40);}.cls-46{stroke:url(#linear-gradient-41);}.cls-47{stroke:url(#linear-gradient-42);}.cls-48{stroke:url(#linear-gradient-43);}.cls-49{stroke:url(#linear-gradient-44);}.cls-50{stroke:url(#linear-gradient-45);}.cls-51{stroke:url(#linear-gradient-46);}.cls-52{stroke:url(#linear-gradient-47);}.cls-53{stroke:url(#linear-gradient-48);}.cls-54{stroke:url(#linear-gradient-49);}.cls-55{stroke:url(#linear-gradient-50);}.cls-56{stroke:url(#linear-gradient-51);}.cls-57{stroke:url(#linear-gradient-52);}.cls-58{stroke:url(#linear-gradient-53);}.cls-59{fill:url(#linear-gradient-54);}.cls-61{fill:url(#linear-gradient-55);}.cls-62{fill:url(#linear-gradient-56);}.cls-63{fill:url(#linear-gradient-57);}.cls-64{fill:url(#linear-gradient-58);}.cls-65{fill:url(#linear-gradient-59);}.cls-66{fill:url(#linear-gradient-60);}.cls-67{fill:url(#linear-gradient-61);}.cls-68{fill:url(#linear-gradient-62);}.cls-69{fill:url(#linear-gradient-63);}.cls-70{fill:url(#linear-gradient-64);}.cls-71{fill:url(#linear-gradient-65);}.cls-72{fill:url(#linear-gradient-66);}.cls-73{fill:url(#linear-gradient-67);}.cls-74{fill:url(#linear-gradient-68);}.cls-75{fill:url(#linear-gradient-69);}.cls-76{fill:url(#linear-gradient-70);}.cls-77{fill:url(#linear-gradient-71);}.cls-78{fill:url(#linear-gradient-72);}.cls-79{fill:url(#linear-gradient-73);}.cls-80,.cls-90{fill:#28cece;}.cls-80{opacity:0.17;}.cls-81{fill:url(#linear-gradient-74);}.cls-82{fill:url(#linear-gradient-75);}.cls-83{fill:url(#linear-gradient-76);}.cls-84{fill:#d39d79;opacity:0.41;}.cls-85{fill:#f9567d;}.cls-86{fill:url(#linear-gradient-77);}.cls-87{fill:#363659;}.cls-88{fill:#403f67;}.cls-89{fill:#28e0e8;}.cls-91{fill:url(#linear-gradient-78);}.cls-92{fill:url(#linear-gradient-79);}.cls-93{fill:#f490ad;}</style><linearGradient id="linear-gradient" x1="248.95" y1="95.4" x2="326.58" y2="140.22" gradientUnits="userSpaceOnUse"><stop offset="0" stop-color="#c1c8f2"/><stop offset="1" stop-color="#1a7fc1"/></linearGradient><linearGradient id="linear-gradient-2" x1="504.6" y1="265.95" x2="519.3" y2="274.43" xlink:href="#linear-gradient"/><linearGradient id="linear-gradient-3" x1="453.69" y1="236.71" x2="468.39" y2="245.2" xlink:href="#linear-gradient"/><linearGradient id="linear-gradient-4" x1="402.78" y1="207.48" x2="417.48" y2="215.96" xlink:href="#linear-gradient"/><linearGradient id="linear-gradient-5" x1="351.87" y1="178.24" x2="366.57" y2="186.73" xlink:href="#linear-gradient"/><linearGradient id="linear-gradient-6" x1="504.6" y1="324.42" x2="519.3" y2="332.9" xlink:href="#linear-gradient"/><linearGradient id="linear-gradient-7" x1="504.6" y1="382.78" x2="519.3" y2="391.27" xlink:href="#linear-gradient"/><linearGradient id="linear-gradient-8" x1="504.6" y1="441.03" x2="519.3" y2="449.52" xlink:href="#linear-gradient"/><linearGradient id="linear-gradient-9" x1="555.52" y1="294.4" x2="570.22" y2="302.89" xlink:href="#linear-gradient"/><linearGradient id="linear-gradient-10" x1="555.52" y1="352.87" x2="570.22" y2="361.36" xlink:href="#linear-gradient"/><linearGradient id="linear-gradient-11" x1="555.52" y1="411.23" x2="570.22" y2="419.72" xlink:href="#linear-gradient"/><linearGradient id="linear-gradient-12" x1="555.52" y1="470.05" x2="570.22" y2="478.54" xlink:href="#linear-gradient"/><linearGradient id="linear-gradient-13" x1="606.43" y1="323.64" x2="621.13" y2="332.12" xlink:href="#linear-gradient"/><linearGradient id="linear-gradient-14" x1="606.43" y1="382.11" x2="621.13" y2="390.59" xlink:href="#linear-gradient"/><linearGradient id="linear-gradient-15" x1="606.43" y1="441.57" x2="621.13" y2="450.06" xlink:href="#linear-gradient"/><linearGradient id="linear-gradient-16" x1="606.43" y1="499.83" x2="621.13" y2="508.31" xlink:href="#linear-gradient"/><linearGradient id="linear-gradient-17" x1="504.6" y1="499.83" x2="519.3" y2="508.31" xlink:href="#linear-gradient"/><linearGradient id="linear-gradient-18" x1="555.52" y1="528.85" x2="570.22" y2="537.33" xlink:href="#linear-gradient"/><linearGradient id="linear-gradient-19" x1="606.43" y1="558.62" x2="621.13" y2="567.11" xlink:href="#linear-gradient"/><linearGradient id="linear-gradient-20" x1="253.17" y1="332.19" x2="320.75" y2="371.2" xlink:href="#linear-gradient"/><linearGradient id="linear-gradient-21" x1="299.86" y1="124.64" x2="377.49" y2="169.46" xlink:href="#linear-gradient"/><linearGradient id="linear-gradient-22" x1="350.77" y1="153.87" x2="428.4" y2="198.69" xlink:href="#linear-gradient"/><linearGradient id="linear-gradient-23" x1="401.68" y1="183.11" x2="479.31" y2="227.93" xlink:href="#linear-gradient"/><linearGradient id="linear-gradient-24" x1="452.59" y1="212.34" x2="530.22" y2="257.16" xlink:href="#linear-gradient"/><linearGradient id="linear-gradient-25" x1="248.95" y1="153.87" x2="326.58" y2="198.69" xlink:href="#linear-gradient"/><linearGradient id="linear-gradient-26" x1="299.86" y1="183.11" x2="377.49" y2="227.93" xlink:href="#linear-gradient"/><linearGradient id="linear-gradient-27" x1="350.77" y1="212.34" x2="428.4" y2="257.16" xlink:href="#linear-gradient"/><linearGradient id="linear-gradient-28" x1="401.68" y1="241.58" x2="479.31" y2="286.4" xlink:href="#linear-gradient"/><linearGradient id="linear-gradient-29" x1="452.59" y1="270.81" x2="530.22" y2="315.63" xlink:href="#linear-gradient"/><linearGradient id="linear-gradient-30" x1="248.95" y1="212.34" x2="326.58" y2="257.16" xlink:href="#linear-gradient"/><linearGradient id="linear-gradient-31" x1="299.86" y1="241.58" x2="377.49" y2="286.4" xlink:href="#linear-gradient"/><linearGradient id="linear-gradient-32" x1="350.77" y1="270.81" x2="428.4" y2="315.63" xlink:href="#linear-gradient"/><linearGradient id="linear-gradient-33" x1="401.68" y1="300.05" x2="479.31" y2="344.87" xlink:href="#linear-gradient"/><linearGradient id="linear-gradient-34" x1="452.59" y1="329.28" x2="530.22" y2="374.1" xlink:href="#linear-gradient"/><linearGradient id="linear-gradient-35" x1="248.95" y1="270.81" x2="326.58" y2="315.63" xlink:href="#linear-gradient"/><linearGradient id="linear-gradient-36" x1="299.86" y1="300.05" x2="377.49" y2="344.87" xlink:href="#linear-gradient"/><linearGradient id="linear-gradient-37" x1="350.77" y1="329.28" x2="428.4" y2="374.1" xlink:href="#linear-gradient"/><linearGradient id="linear-gradient-38" x1="401.68" y1="358.52" x2="479.31" y2="403.34" xlink:href="#linear-gradient"/><linearGradient id="linear-gradient-39" x1="452.59" y1="387.75" x2="530.22" y2="432.57" xlink:href="#linear-gradient"/><linearGradient id="linear-gradient-40" x1="299.86" y1="358.52" x2="377.49" y2="403.34" xlink:href="#linear-gradient"/><linearGradient id="linear-gradient-41" x1="350.77" y1="387.75" x2="428.4" y2="432.57" xlink:href="#linear-gradient"/><linearGradient id="linear-gradient-42" x1="401.68" y1="416.99" x2="479.31" y2="461.81" xlink:href="#linear-gradient"/><linearGradient id="linear-gradient-43" x1="452.59" y1="446.22" x2="530.22" y2="491.04" xlink:href="#linear-gradient"/><linearGradient id="linear-gradient-44" x1="503.5" y1="241.58" x2="581.14" y2="286.4" xlink:href="#linear-gradient"/><linearGradient id="linear-gradient-45" x1="503.5" y1="300.05" x2="581.14" y2="344.87" xlink:href="#linear-gradient"/><linearGradient id="linear-gradient-46" x1="503.5" y1="358.52" x2="581.14" y2="403.34" xlink:href="#linear-gradient"/><linearGradient id="linear-gradient-47" x1="503.5" y1="416.99" x2="581.14" y2="461.81" xlink:href="#linear-gradient"/><linearGradient id="linear-gradient-48" x1="503.5" y1="475.46" x2="581.14" y2="520.28" xlink:href="#linear-gradient"/><linearGradient id="linear-gradient-49" x1="554.42" y1="270.81" x2="632.05" y2="315.63" xlink:href="#linear-gradient"/><linearGradient id="linear-gradient-50" x1="554.42" y1="329.28" x2="632.05" y2="374.1" xlink:href="#linear-gradient"/><linearGradient id="linear-gradient-51" x1="554.42" y1="387.75" x2="632.05" y2="432.57" xlink:href="#linear-gradient"/><linearGradient id="linear-gradient-52" x1="554.42" y1="446.22" x2="632.05" y2="491.04" xlink:href="#linear-gradient"/><linearGradient id="linear-gradient-53" x1="554.42" y1="504.69" x2="632.05" y2="549.51" xlink:href="#linear-gradient"/><linearGradient id="linear-gradient-54" x1="354.41" y1="93.98" x2="350.1" y2="122.1" gradientTransform="matrix(0.87, 0.5, 0, 1.15, 34.99, -155.25)" xlink:href="#linear-gradient"/><linearGradient id="linear-gradient-55" x1="412.02" y1="94.36" x2="407.71" y2="122.48" gradientTransform="matrix(0.87, 0.5, 0, 1.15, 34.99, -155.25)" xlink:href="#linear-gradient"/><linearGradient id="linear-gradient-56" x1="473.63" y1="93" x2="469.32" y2="121.11" gradientTransform="matrix(0.87, 0.5, 0, 1.15, 34.99, -155.25)" xlink:href="#linear-gradient"/><linearGradient id="linear-gradient-57" x1="532.42" y1="92.86" x2="528.11" y2="120.98" gradientTransform="matrix(0.87, 0.5, 0, 1.15, 34.99, -155.25)" xlink:href="#linear-gradient"/><linearGradient id="linear-gradient-58" x1="587.57" y1="95.29" x2="583.26" y2="123.4" gradientTransform="matrix(0.87, 0.5, 0, 1.15, 34.99, -155.25)" xlink:href="#linear-gradient"/><linearGradient id="linear-gradient-59" x1="646.36" y1="94.16" x2="642.05" y2="122.28" gradientTransform="matrix(0.87, 0.5, 0, 1.15, 34.99, -155.25)" xlink:href="#linear-gradient"/><linearGradient id="linear-gradient-60" x1="354.41" y1="144.67" x2="350.1" y2="172.79" gradientTransform="matrix(0.87, 0.5, 0, 1.15, 34.99, -155.25)" xlink:href="#linear-gradient"/><linearGradient id="linear-gradient-61" x1="412.02" y1="145.04" x2="407.71" y2="173.16" gradientTransform="matrix(0.87, 0.5, 0, 1.15, 34.99, -155.25)" xlink:href="#linear-gradient"/><linearGradient id="linear-gradient-62" x1="453.69" y1="294.87" x2="468.39" y2="303.35" xlink:href="#linear-gradient"/><linearGradient id="linear-gradient-63" x1="402.78" y1="265.63" x2="417.48" y2="274.12" xlink:href="#linear-gradient"/><linearGradient id="linear-gradient-64" x1="351.87" y1="236.4" x2="366.57" y2="244.88" xlink:href="#linear-gradient"/><linearGradient id="linear-gradient-65" x1="453.69" y1="353.02" x2="468.39" y2="361.51" xlink:href="#linear-gradient"/><linearGradient id="linear-gradient-66" x1="402.78" y1="323.79" x2="417.48" y2="332.28" xlink:href="#linear-gradient"/><linearGradient id="linear-gradient-67" x1="351.87" y1="294.55" x2="366.57" y2="303.04" xlink:href="#linear-gradient"/><linearGradient id="linear-gradient-68" x1="453.69" y1="411.18" x2="468.39" y2="419.67" xlink:href="#linear-gradient"/><linearGradient id="linear-gradient-69" x1="402.78" y1="381.94" x2="417.48" y2="390.43" xlink:href="#linear-gradient"/><linearGradient id="linear-gradient-70" x1="351.87" y1="352.71" x2="366.57" y2="361.2" xlink:href="#linear-gradient"/><linearGradient id="linear-gradient-71" x1="453.69" y1="469.34" x2="468.39" y2="477.82" xlink:href="#linear-gradient"/><linearGradient id="linear-gradient-72" x1="402.78" y1="440.1" x2="417.48" y2="448.59" xlink:href="#linear-gradient"/><linearGradient id="linear-gradient-73" x1="351.87" y1="410.87" x2="366.57" y2="419.35" xlink:href="#linear-gradient"/><linearGradient id="linear-gradient-74" x1="242.77" y1="477.24" x2="265.69" y2="517.57" gradientTransform="translate(51.05 106.68) rotate(3.77)" gradientUnits="userSpaceOnUse"><stop offset="0" stop-opacity="0"/><stop offset="0.98"/></linearGradient><linearGradient id="linear-gradient-75" x1="296.58" y1="601.78" x2="321.5" y2="645.64" gradientTransform="matrix(1, 0, 0, 1, 0, 0)" xlink:href="#linear-gradient-74"/><linearGradient id="linear-gradient-76" x1="251.26" y1="604.28" x2="279.59" y2="604.28" gradientUnits="userSpaceOnUse"><stop offset="0" stop-color="#eec6d9"/><stop offset="0.42" stop-color="#f1d6d3"/><stop offset="1" stop-color="#f4eccb"/></linearGradient><linearGradient id="linear-gradient-77" x1="285.11" y1="607.74" x2="316.44" y2="607.74" xlink:href="#linear-gradient-76"/><linearGradient id="linear-gradient-78" x1="284.83" y1="257.34" x2="287.66" y2="329.4" xlink:href="#linear-gradient-76"/><linearGradient id="linear-gradient-79" x1="365.04" y1="316.34" x2="386.46" y2="316.34" xlink:href="#linear-gradient-76"/></defs><title>Calendar floating</title><ellipse class="cls-1" cx="300.56" cy="621.71" rx="94.41" ry="163.54" transform="translate(-322.77 918.9) rotate(-89.69)"/><path class="cls-2" d="M649.09,267.3v305a13,13,0,0,1-17.56,12.2,12.78,12.78,0,0,0,2.6-7.82v-305a13,13,0,0,0-6.49-11.27L264.74,54.51a11.91,11.91,0,0,0-2-.93,13,13,0,0,1,16.94-3.45L642.59,256A13,13,0,0,1,649.09,267.3Z"/><path class="cls-3" d="M634.09,271.5v305a12.78,12.78,0,0,1-2.6,7.82,13,13,0,0,1-16.94,3.45L252.1,382.11a13,13,0,0,1-6.5-11.26v-305a13,13,0,0,1,17.55-12.2,11.91,11.91,0,0,1,2,.93L627.6,260.23A13,13,0,0,1,634.09,271.5Z"/><polygon class="cls-4" points="313.22 161.72 262.31 132.33 262.31 73.91 313.22 103.3 313.22 161.72"/><polygon class="cls-5" points="309.53 156.75 264.38 130.68 264.38 78.88 309.53 104.94 309.53 156.75"/><polygon class="cls-6" points="516.87 278.66 507.04 272.99 507.04 261.72 516.87 267.39 516.87 278.66"/><polygon class="cls-7" points="465.95 249.43 456.13 243.75 456.13 232.49 465.95 238.16 465.95 249.43"/><polygon class="cls-8" points="415.04 220.19 405.22 214.52 405.22 203.25 415.04 208.92 415.04 220.19"/><polygon class="cls-9" points="364.13 190.95 354.31 185.28 354.31 174.01 364.13 179.69 364.13 190.95"/><polygon class="cls-10" points="313.22 161.72 303.4 156.05 303.4 144.78 313.22 150.45 313.22 161.72"/><polygon class="cls-11" points="516.87 337.13 507.04 331.46 507.04 320.19 516.87 325.86 516.87 337.13"/><polygon class="cls-12" points="516.87 395.49 507.04 389.82 507.04 378.55 516.87 384.22 516.87 395.49"/><polygon class="cls-13" points="516.87 453.75 507.04 448.07 507.04 436.81 516.87 442.48 516.87 453.75"/><polygon class="cls-14" points="567.78 307.12 557.96 301.44 557.96 290.18 567.78 295.85 567.78 307.12"/><polygon class="cls-15" points="567.78 365.59 557.96 359.92 557.96 348.65 567.78 354.32 567.78 365.59"/><polygon class="cls-16" points="567.78 423.95 557.96 418.28 557.96 407.01 567.78 412.68 567.78 423.95"/><polygon class="cls-17" points="567.78 482.76 557.96 477.09 557.96 465.82 567.78 471.49 567.78 482.76"/><polygon class="cls-18" points="618.69 336.35 608.87 330.68 608.87 319.41 618.69 325.08 618.69 336.35"/><polygon class="cls-19" points="618.69 394.82 608.87 389.15 608.87 377.88 618.69 383.55 618.69 394.82"/><polygon class="cls-20" points="618.69 454.29 608.87 448.62 608.87 437.35 618.69 443.02 618.69 454.29"/><polygon class="cls-21" points="618.69 512.54 608.87 506.87 608.87 495.6 618.69 501.27 618.69 512.54"/><polygon class="cls-22" points="516.87 512.54 507.04 506.87 507.04 495.6 516.87 501.27 516.87 512.54"/><polygon class="cls-23" points="567.78 541.56 557.96 535.89 557.96 524.62 567.78 530.29 567.78 541.56"/><polygon class="cls-24" points="618.69 571.34 608.87 565.67 608.87 554.4 618.69 560.07 618.69 571.34"/><polygon class="cls-5" points="309.53 215.22 264.38 189.15 264.38 137.35 309.53 163.41 309.53 215.22"/><polygon class="cls-5" points="309.53 273.69 264.38 247.62 264.38 195.82 309.53 221.88 309.53 273.69"/><polygon class="cls-5" points="309.53 332.16 264.38 306.09 264.38 254.29 309.53 280.35 309.53 332.16"/><polygon class="cls-25" points="309.53 390.63 264.38 364.56 264.38 312.76 309.53 338.82 309.53 390.63"/><polygon class="cls-26" points="364.13 190.95 313.22 161.56 313.22 103.14 364.13 132.53 364.13 190.95"/><polygon class="cls-27" points="415.04 220.19 364.13 190.8 364.13 132.38 415.04 161.77 415.04 220.19"/><polygon class="cls-28" points="465.95 249.43 415.04 220.03 415.04 161.61 465.95 191 465.95 249.43"/><polygon class="cls-29" points="516.87 278.66 465.95 249.27 465.95 190.85 516.87 220.24 516.87 278.66"/><polygon class="cls-30" points="313.22 220.19 262.31 190.8 262.31 132.38 313.22 161.77 313.22 220.19"/><polygon class="cls-31" points="364.13 249.43 313.22 220.03 313.22 161.61 364.13 191 364.13 249.43"/><polygon class="cls-32" points="415.04 278.66 364.13 249.27 364.13 190.85 415.04 220.24 415.04 278.66"/><polygon class="cls-33" points="465.95 307.89 415.04 278.5 415.04 220.08 465.95 249.47 465.95 307.89"/><polygon class="cls-34" points="516.87 337.13 465.95 307.74 465.95 249.32 516.87 278.71 516.87 337.13"/><polygon class="cls-35" points="313.22 278.66 262.31 249.27 262.31 190.85 313.22 220.24 313.22 278.66"/><polygon class="cls-36" points="364.13 307.89 313.22 278.5 313.22 220.08 364.13 249.47 364.13 307.89"/><polygon class="cls-37" points="415.04 337.13 364.13 307.74 364.13 249.32 415.04 278.71 415.04 337.13"/><polygon class="cls-38" points="465.95 366.37 415.04 336.97 415.04 278.55 465.95 307.94 465.95 366.37"/><polygon class="cls-39" points="516.87 395.6 465.95 366.21 465.95 307.79 516.87 337.18 516.87 395.6"/><polygon class="cls-40" points="313.22 337.13 262.31 307.74 262.31 249.32 313.22 278.71 313.22 337.13"/><polygon class="cls-41" points="364.13 366.37 313.22 336.97 313.22 278.55 364.13 307.94 364.13 366.37"/><polygon class="cls-42" points="415.04 395.6 364.13 366.21 364.13 307.79 415.04 337.18 415.04 395.6"/><polygon class="cls-43" points="465.95 424.84 415.04 395.44 415.04 337.02 465.95 366.42 465.95 424.84"/><polygon class="cls-44" points="516.87 454.07 465.95 424.68 465.95 366.26 516.87 395.65 516.87 454.07"/><polygon class="cls-5" points="313.22 395.6 262.31 366.21 262.31 307.79 313.22 337.18 313.22 395.6"/><polygon class="cls-45" points="364.13 424.84 313.22 395.44 313.22 337.02 364.13 366.42 364.13 424.84"/><polygon class="cls-46" points="415.04 454.07 364.13 424.68 364.13 366.26 415.04 395.65 415.04 454.07"/><polygon class="cls-47" points="465.95 483.31 415.04 453.91 415.04 395.49 465.95 424.88 465.95 483.31"/><polygon class="cls-48" points="516.87 512.54 465.95 483.15 465.95 424.73 516.87 454.12 516.87 512.54"/><polygon class="cls-49" points="567.78 307.89 516.87 278.5 516.87 220.08 567.78 249.47 567.78 307.89"/><polygon class="cls-50" points="567.78 366.37 516.87 336.97 516.87 278.55 567.78 307.94 567.78 366.37"/><polygon class="cls-51" points="567.78 424.84 516.87 395.44 516.87 337.02 567.78 366.42 567.78 424.84"/><polygon class="cls-52" points="567.78 483.31 516.87 453.91 516.87 395.49 567.78 424.88 567.78 483.31"/><polygon class="cls-53" points="567.78 541.78 516.87 512.38 516.87 453.96 567.78 483.36 567.78 541.78"/><polygon class="cls-54" points="618.69 337.13 567.78 307.74 567.78 249.32 618.69 278.71 618.69 337.13"/><polygon class="cls-55" points="618.69 395.6 567.78 366.21 567.78 307.79 618.69 337.18 618.69 395.6"/><polygon class="cls-56" points="618.69 454.07 567.78 424.68 567.78 366.26 618.69 395.65 618.69 454.07"/><polygon class="cls-57" points="618.69 512.54 567.78 483.15 567.78 424.73 618.69 454.12 618.69 512.54"/><polygon class="cls-58" points="618.69 571.01 567.78 541.62 567.78 483.2 618.69 512.59 618.69 571.01"/><polygon class="cls-59" points="332.74 156.53 327.3 144.03 330.11 143.5 333.12 150.42 350.98 137.56 353.5 141.58 332.74 156.53"/><polygon class="cls-60" points="279.3 130.35 273.86 117.84 276.67 117.32 279.67 124.24 297.53 111.38 300.06 115.4 279.3 130.35"/><polygon class="cls-60" points="279.3 183.5 273.86 170.99 276.67 170.47 279.67 177.39 297.53 164.53 300.06 168.55 279.3 183.5"/><polygon class="cls-61" points="382.63 185.77 377.19 173.26 380 172.74 383.01 179.66 400.87 166.79 403.39 170.82 382.63 185.77"/><polygon class="cls-62" points="435.99 215 430.55 202.5 433.36 201.97 436.37 208.89 454.22 196.03 456.75 200.05 435.99 215"/><polygon class="cls-63" points="486.9 244.24 481.46 231.73 484.27 231.21 487.28 238.13 505.13 225.26 507.66 229.29 486.9 244.24"/><polygon class="cls-64" points="534.66 274.62 529.22 262.11 532.03 261.59 535.04 268.5 552.89 255.64 555.42 259.66 534.66 274.62"/><polygon class="cls-65" points="585.57 302.71 580.13 290.2 582.94 289.68 585.95 296.6 603.81 283.74 606.33 287.76 585.57 302.71"/><polygon class="cls-66" points="332.74 215.06 327.3 202.55 330.11 202.03 333.12 208.95 350.98 196.08 353.5 200.1 332.74 215.06"/><polygon class="cls-67" points="382.63 244.29 377.19 231.78 380 231.26 383.01 238.18 400.87 225.32 403.39 229.34 382.63 244.29"/><polygon class="cls-68" points="465.95 307.58 456.13 301.91 456.13 290.64 465.95 296.31 465.95 307.58"/><polygon class="cls-69" points="415.04 278.35 405.22 272.68 405.22 261.41 415.04 267.08 415.04 278.35"/><polygon class="cls-70" points="364.13 249.11 354.31 243.44 354.31 232.17 364.13 237.84 364.13 249.11"/><polygon class="cls-10" points="313.22 219.88 303.4 214.21 303.4 202.94 313.22 208.61 313.22 219.88"/><polygon class="cls-71" points="465.95 365.74 456.13 360.07 456.13 348.8 465.95 354.47 465.95 365.74"/><polygon class="cls-72" points="415.04 336.5 405.22 330.83 405.22 319.56 415.04 325.23 415.04 336.5"/><polygon class="cls-73" points="364.13 307.27 354.31 301.6 354.31 290.33 364.13 296 364.13 307.27"/><polygon class="cls-10" points="313.22 278.03 303.4 272.36 303.4 261.09 313.22 266.76 313.22 278.03"/><polygon class="cls-74" points="465.95 423.89 456.13 418.22 456.13 406.95 465.95 412.62 465.95 423.89"/><polygon class="cls-75" points="415.04 394.66 405.22 388.99 405.22 377.72 415.04 383.39 415.04 394.66"/><polygon class="cls-76" points="364.13 365.42 354.31 359.75 354.31 348.48 364.13 354.15 364.13 365.42"/><polygon class="cls-10" points="313.22 336.19 303.4 330.52 303.4 319.25 313.22 324.92 313.22 336.19"/><polygon class="cls-77" points="465.95 482.05 456.13 476.38 456.13 465.11 465.95 470.78 465.95 482.05"/><polygon class="cls-78" points="415.04 452.81 405.22 447.14 405.22 435.87 415.04 441.55 415.04 452.81"/><polygon class="cls-79" points="364.13 423.58 354.31 417.91 354.31 406.64 364.13 412.31 364.13 423.58"/><polygon class="cls-10" points="313.22 394.34 303.4 388.67 303.4 377.4 313.22 383.07 313.22 394.34"/><path class="cls-80" d="M383.26,325.3a38.2,38.2,0,0,1-1.14,6.23c-1,2.93-3.07,5.33-5.07,7.68a159.83,159.83,0,0,0-14.29,19.37c-5.24,8.51-9.49,17.78-16.35,25a3.3,3.3,0,0,1-2,1.25,3.43,3.43,0,0,1-1.95-.65,171.31,171.31,0,0,1-24-16.84l15.3-10.53a198.08,198.08,0,0,0,18.07-13.48,168.94,168.94,0,0,0,12.32-12.21,58,58,0,0,0,8.44-10.66c1.74-3.07,2.95-6.42,4.84-9.39s8.72-9.58,9.34-2.75C387.35,314,384.16,319.83,383.26,325.3Z"/><path class="cls-81" d="M265.63,604.36s14.17-4.44,16.77-1.26c2.3,2.82-2.47,10.61-11.56,12.26-4.91.9-12.46,8-18.65,1.32,0,0-1.42-1.88-1.2-6.07,0-.54.43-2.25.77-1.85,1.55,1.81,3.2,5.41,13,3s8.84-4.92,8.84-4.92.23-2.91-3.86-3.21A28.51,28.51,0,0,0,265.63,604.36Z"/><path class="cls-82" d="M301.11,607.8s14.24-5.73,17.66-2.93-1.25,11.66-11.12,14c-5.35,1.26-13.14,9.17-20.44,2.64,0,0-1.69-1.85-1.76-6.22,0-.56.32-2.37.72-2,1.84,1.77,3.92,5.4,14.51,2.24s9.37-5.7,9.37-5.7.05-3.05-4.47-3.07A32.88,32.88,0,0,0,301.11,607.8Z"/><path class="cls-83" d="M251.67,591.56c.27.08-.49,7.41-.4,8,1,6.44-1.18,12.76,2.11,16.49,2,2.21,3,0,5.92.17a27.42,27.42,0,0,0,17.88-5.93c.92-.77,2.27-.33,2.39-1.52.22-2.2-2.1-3.79-4.23-4.38-2.29-.62-1.75-1.06-4.1-1.38-3-.4-7.22,2.45-8.05.75s0-8.58.07-10.35Z"/><path class="cls-84" d="M258.2,613.69c.57.86-1.64-.65-2.64-.89A4.53,4.53,0,0,1,253.1,611a26.47,26.47,0,0,1-1.59-2.67,60.74,60.74,0,0,1,.48-8.67c.47-3.46,4.46-1.18,5,1.23a16,16,0,0,1-.12,3.91C256.77,606.57,256.81,611.61,258.2,613.69Z"/><path class="cls-85" d="M265.18,604.14s13.55-4.7,16.56-2-1.69,10.64-10.85,12.31c-5,.91-12.48,7.8-18.86,1.47,0,0-1.46-1.78-1.33-5.78,0-.52.4-2.16.76-1.78,1.6,1.71,3.33,5.13,13.19,2.73s8.86-4.8,8.86-4.8.19-2.78-4-3A38.37,38.37,0,0,0,265.18,604.14Z"/><path class="cls-86" d="M285.13,594c.29.07-.12,8.09,0,8.67,1.42,7-.58,14,3.21,17.82,2.25,2.3,3.24-.15,6.45-.14a29.8,29.8,0,0,0,19.13-7.45c.95-.89,2.45-.48,2.51-1.78.12-2.41-2.5-4-4.85-4.52-2.52-.56-2-1.07-4.53-1.28-3.27-.28-7.72,3.06-8.71,1.25-.92-1.65-.5-9.32-.5-11.26Z"/><path class="cls-84" d="M293,618c.64.85-1.72-.58-2.77-.78a4.64,4.64,0,0,1-2.62-1.73,26.93,26.93,0,0,1-1.78-2.67,63.2,63.2,0,0,1,0-9c.3-3.59,4.53-1.45,5.18,1a17,17,0,0,1,.09,4C291.16,610.74,291.47,615.93,293,618Z"/><path class="cls-87" d="M281.37,427.85s2.8,60.66,3.64,69.81-4.49,28.36-9.52,42.06-8.61,59.32-10.84,62.21c-1.53,2-8.29,1.35-11.9,1.14a3.26,3.26,0,0,1-3.09-3.18c-.28-12.61,2.32-56.83,5.11-65,3.11-9.15,1.56-32.54,0-37.8-18.81-63.54-4-92-4-92Z"/><path class="cls-88" d="M268.62,539.72c-5,13.7-8.6,59.32-10.84,62.21a4.79,4.79,0,0,1-3.2,1.25s0,0,0,0l-1.83-.11a3.24,3.24,0,0,1-3.07-3.18c-.29-12.61,2.31-56.83,5.1-65,3.11-9.15,1.56-32.54,0-37.8-14.8-50-8.81-78.24-5.58-88l25.31,18.85s2.8,60.66,3.64,69.81S273.66,526,268.62,539.72Z"/><path class="cls-88" d="M298.28,605c-.91,1.55-4,1.6-7,1.6H291c-.74,0-1.48,0-2.18,0h-.29l-.69.05a3.41,3.41,0,0,1-1.24-.15,3.25,3.25,0,0,1-2.23-2.61c-1.93-12.47-5.11-56.64-3.41-65.16,1.89-9.48-2.69-32.46-4.92-37.48-13.66-30.72-17.58-53.62-18.12-68.72-.52-14.65,2.14-22,2.14-22l43.58,12.76s2.23,65.43,2.46,74.61C306.47,512.83,300.11,601.86,298.28,605Z"/><path class="cls-89" d="M248.25,385c-1.24-3.73,12.19-36.05,12.19-36.05-2.74-2.24,20-48,16.51-49-4.22-1.25-27,7.44-30.19,12.42,0,0-21.63,65.89-20.14,76.33S248,417.07,248,417.07l3.48-6.46,7.21-13.93S249.5,388.72,248.25,385Z"/><path class="cls-90" d="M248.5,385c-1.24-3.73,12.19-36.05,12.19-36.05a25.38,25.38,0,0,0-9.2-5,9.9,9.9,0,0,0-3.24,3.23S234.58,377.53,236.07,388c.75,6.71,9.45,16.41,15.42,22.63l7.21-13.93S249.75,388.72,248.5,385Z"/><path class="cls-89" d="M312.41,361.12c-1,4.23-3.48,7.71-5.22,11.69a42.12,42.12,0,0,0-4.48,18.9c0,4.84.43,9.91.82,14.71.34,4.22,3.52,7.46,2.62,12-.67,3.4-3.25,6.07-5.89,8.32A26.2,26.2,0,0,1,294,431c-3.36,1.5-7.1,1.8-10.77,2-4.4.28-8.8.48-13.21.51h-.86c-7.32,0-15.2-.61-20.82-5.29a8.76,8.76,0,0,1-3-4.21c-.63-2.28.19-4.68,1-6.91,2.58-7.36,4.92-14.85,5.81-22.59A140.91,140.91,0,0,0,252.6,380c.08-11.78.51-23.56,1.05-35.34.46-10.06,0-21.65,4.3-31,6.46-14.18,22.63-15.42,35.81-12.18a8.58,8.58,0,0,1,2.73,1,6.37,6.37,0,0,1,2.49,3.23c3.23,7,2.24,15.17,4,22.63,1.49,5.72,4.47,10.69,6.71,15.91S313.65,355.4,312.41,361.12Z"/><path class="cls-89" d="M307.07,340.6a7,7,0,0,1-.2,4.07c-1.07,2.31-4.13,2.9-6.64,2.48s-4.92-1.53-7.46-1.45c-6.1.18-9.81,6.79-11.35,12.69-5,19.19-.52,40.16-7,58.89-1.42,4.11-3.49,8.19-7,10.76s-8.73,3.17-12.1.43c-3.18-2.58-3.82-7.12-4-11.21-1.12-24.64,6-49.2,4.06-73.79-.13-1.76-.92-4.06-2.68-3.9a3.51,3.51,0,0,0-2,1.35c-1.23,1.34-2.78,2.78-4.57,2.52-3-.44-3.25-4.6-2.66-7.54q1.32-6.52,3.16-12.93c1.46-5.1,3.29-10.35,7.14-14,4.56-4.35,11.32-5.73,17.6-5.11,8.46.84,18.42,3.72,23.92,10.45A55.87,55.87,0,0,1,307.07,340.6Z"/><path class="cls-90" d="M303.53,406.42c.34,4.22,3.52,7.46,2.62,12-.67,3.4-3.25,6.07-5.89,8.32A26.2,26.2,0,0,1,294,431c-3.36,1.5-7.1,1.8-10.77,2-4.4.28-8.8.48-13.21.51a13.05,13.05,0,0,1-.47-2.7c-.2-3.28.81-6.5,1.67-9.67,3.9-14.19,3.91-28.21,4.86-42.71a99.78,99.78,0,0,1,2.31-16.68c.86-3.64,2-8.83,5.26-11.18,3.48-15.67,26.15,15.47,26.15,15.47-.57,4-3.72,7.52-5,11.3a19,19,0,0,0-1,4.83,42.24,42.24,0,0,0-1.1,9.56C302.71,396.55,303.14,401.62,303.53,406.42Z"/><path class="cls-91" d="M269.64,283.79c-.18.53-1,11-1.52,17a3.1,3.1,0,0,0,3.73,3.28L289,300.51c.4-8.89,1.9-9.43,5.75-10.14,2.24-.42,4.62-1.36,5.69-3.38.82-1.55.68-3.41.6-5.16s-.07-3.66,1-5.07c.62-.83,1.57-1.47,1.82-2.47s-.35-2.13-.89-3.09A15.43,15.43,0,0,1,301,266c-.09-.65-.13-1.3-.16-1.94-.11-2.58.06-5.3-2.33-6.83a10,10,0,0,0-4-1.53,11,11,0,0,0-7.61,2.17c-5.36,3.66-9.07,9.68-12.13,15.26A68.08,68.08,0,0,0,269.64,283.79Z"/><path class="cls-89" d="M328.07,349.19c-5.47-10.7-12.93-21.88-19.89-31.83l-.25-.25A152.9,152.9,0,0,0,298,303.85a3.42,3.42,0,0,0-3.59-.93c-12.09,4-12.09,25.88-12.09,25.88l19.89,31.33c8.21,6,19.65,17.9,30.59,13.43a33.84,33.84,0,0,0,7-4.48c9.05-7.92,32.3-37.3,32.39-37.94a3,3,0,0,0-.22-1.32c-1.31-3.92-3.63-10.26-8.41-8.38C350.73,327.35,328.57,349.93,328.07,349.19Z"/><path class="cls-85" d="M300.77,606.79s14.23-5.72,17.65-2.92-1.24,11.66-11.12,14c-5.34,1.26-13.13,9.18-20.43,2.65,0,0-1.69-1.86-1.76-6.22,0-.57.31-2.37.72-2,1.84,1.77,3.91,5.4,14.5,2.23s9.38-5.7,9.38-5.7.05-3-4.48-3.07A33.12,33.12,0,0,0,300.77,606.79Z"/><path class="cls-87" d="M291.06,604.88l.17,1.74H291l-2.18,0h-.29a17.79,17.79,0,0,1-1.93-.1,3.25,3.25,0,0,1-2.23-2.61c-1.93-12.47-5.11-56.64-3.41-65.16,1.89-9.48-2.69-32.46-4.92-37.48-13.66-30.72-17.58-53.62-18.12-68.72l21,.65s-1.58,4,0,10.53,11.36,63.28,14.19,69.08S291.06,604.88,291.06,604.88Z"/><path class="cls-85" d="M295.88,245.49c-4.85-2.93-10.93-2.85-16.54-2-6,.88-15.23,3-18.79,7.95-1.25,1.74.75,3.56.05,5.58a59,59,0,0,0-3.18,21.42c.15,4,.74,8,2.66,11.47s5.39,6.26,9.34,6.51a11.18,11.18,0,0,0,8.65-3.7,17.22,17.22,0,0,0,4.09-8.67c-2.94-2.82-5.51-7.27-3.41-10.76a3.29,3.29,0,0,1,2.81-1.76c1.48.07,2.52,1.47,3.13,2.82a14.84,14.84,0,0,1,1.32,6.4c1,.61,1.82-1.12,1.81-2.32l-.1-8.3c0-1.92.17-4.24,1.87-5.15.6-.32,1.3-.41,1.9-.72,1.8-1,2-3.55,3.75-4.46,2.07-1.06,4.13.94,5.83-1.07C304.39,254.78,299.09,247.44,295.88,245.49Z"/><path class="cls-85" d="M290.46,315c-3.63,1.22-7.59.58-11.4.25s-8-.22-11,2.16c-2.16,1.7-3.48,4.42-5.92,5.7a8.75,8.75,0,0,1-.83.37c-3.39,1.2-7.34-.62-10.2-3s-5.21-5.26-5.64-8.81c-.54-4.34,2-8.39,3.12-12.6,1-3.77,1-7.75,1-11.66,0-7.84.46-15.82,3.1-23.2.27-.75.57-1.53.93-2.35,2.07-4.85,5.57-10.56,10.11-12.68a6.81,6.81,0,0,1,1.29-.47c4.69-1.27,5.08,4.73,5,9.45,0,1.36-.08,2.6-.09,3.54a25.42,25.42,0,0,0,8.83,19.33,12.68,12.68,0,0,1,3.14,3.19c1.88,3.36-.47,7.8,1,11.35,2.23,5.35,11.29,5.16,13.12,10.66C297.2,309.94,294.09,313.82,290.46,315Z"/><path class="cls-92" d="M368.75,313.61a20.32,20.32,0,0,1,2.34-3.4c3.06-3.4,7.75-4.71,12.17-5.86a4.28,4.28,0,0,1,2-.19,1.46,1.46,0,0,1,1.2,1.42,2.17,2.17,0,0,1-.67,1.13l-4.12,4.45a7,7,0,0,1,3-1.07c.37,1.15-.64,2.22-1.32,3.21-2.22,3.26-1.34,8-3.9,11a9.58,9.58,0,0,1-2.92,2.15,24,24,0,0,1-5,1.94,2.61,2.61,0,0,1-1.07.13,2.57,2.57,0,0,1-1.24-.74c-1.52-1.37-4.21-4.06-4.22-6.26C365,319.14,367.57,315.65,368.75,313.61Z"/><path class="cls-93" d="M269.68,251.86c-7.61,7.83-8.67,19.9-7.78,30.78.4,4.86,1.09,9.79.14,14.57-.64,3.2-2,6.21-2.83,9.37a18.68,18.68,0,0,0,.11,9.45c.52,2.32,2,5.1,2,7.48-3.39,1.2-7.34-.62-10.2-3s-5.21-5.26-5.64-8.81c-.54-4.34,2-8.39,3.12-12.6,1-3.77,1-7.75,1-11.66,0-2.28.05-4.55.17-6.83a66.59,66.59,0,0,1,1.37-10.89,73.85,73.85,0,0,1,2.36-9.14,24.61,24.61,0,0,1,11.07-13.11c1.37-.76,5.91-2.7,7.56-2.18S270.47,251.05,269.68,251.86Z"/><path class="cls-93" d="M284.82,312.41a38.51,38.51,0,0,1-7.11-6.36c-3.35-4.19-4.78-9.53-6.13-14.71a73,73,0,0,0-.25,12c.24,2.77.88,5.66,2.77,7.71,2.45,2.65,6.36,3.24,9.95,3.55a2.73,2.73,0,0,0,2.61-.88C286.09,313.24,285.43,312.87,284.82,312.41Z"/></svg>