<svg id="Layer_1" data-name="Layer 1" xmlns="http://www.w3.org/2000/svg" viewBox="0 0 831 768"><defs><style>.cls-1,.cls-7{fill:#27deee;}.cls-1{opacity:0.1;}.cls-2{fill:#222a72;}.cls-3{fill:#f9567d;}.cls-4{fill:#181a19;opacity:0.18;}.cls-5{fill:#4e62b7;}.cls-6{fill:#182154;}.cls-8{fill:#87f9f9;}</style></defs><title>Rabbit coming out of a magicians hat</title><ellipse class="cls-1" cx="427.92" cy="492.39" rx="154.97" ry="268.42" transform="translate(-66.78 917.64) rotate(-89.69)"/><path class="cls-2" d="M538.36,550.68s-12.18,35.55-109.67,40.62S304.8,547.63,304.8,547.63l2.76-73.25,2.27-60.32,225.36.41,1.41,60.82Z"/><path class="cls-3" d="M536.6,475.29l-1.41.83c-62,35.82-162.93,35.64-225.36-.4-.77-.45-1.53-.89-2.27-1.34l2.27-60.32,225.36.41Z"/><path class="cls-4" d="M355.13,428.27,353.05,582s-30.65-8.64-48.25-34.37l5.08-140.47Z"/><ellipse class="cls-5" cx="422.16" cy="356" rx="92" ry="159.35" transform="translate(63.87 776.23) rotate(-89.69)"/><ellipse class="cls-2" cx="422.16" cy="349.76" rx="92" ry="159.35" transform="translate(70.12 770.01) rotate(-89.69)"/><path class="cls-6" d="M497.66,374.26a75.75,75.75,0,0,1-11.6,8.12c-37.47,21.64-98.42,21.52-136.14-.24-1.14-.66-2.25-1.34-3.32-2-34.35-21.87-33.44-55.59,2.9-76.58,37.47-21.63,98.41-21.52,136.13.25C518.93,323,523,352.7,497.66,374.26Z"/><path class="cls-7" d="M497.66,374.26a75.75,75.75,0,0,1-11.6,8.12c-37.47,21.64-98.42,21.52-136.14-.24-1.14-.66-2.25-1.34-3.32-2a72.77,72.77,0,0,1,33.26-59.57c17.55-11.08,38.84-13.8,59.21-13.19,4.23.13,10.79-.6,14.71,1.1,3.51,1.52,7,6,9.68,8.66a138.94,138.94,0,0,1,18.69,23.25,137.21,137.21,0,0,1,14.21,29.3A29.58,29.58,0,0,1,497.66,374.26Z"/><path class="cls-8" d="M378.25,291.4S345.53,120.12,361.78,99.81s37.14,9,45.83,42.81,2.46,146.74,2.46,146.74Z"/><path class="cls-8" d="M410.07,289.36s29.49-158.87,39.72-182.78c16.7-39.06,37.33-11.2,37.67,23.74s-35.31,168.4-35.31,168.4Z"/><path class="cls-8" d="M461.52,329.65c0,34.21-29.42,54.83-63.64,54.83s-60.25-20.62-60.25-54.83a61.95,61.95,0,1,1,123.89,0Z"/><path class="cls-7" d="M364,369a13.33,13.33,0,0,0,5.13,7.18,30.9,30.9,0,0,0,8,4c5.74,2.89,14,4,13.62,4-4.33.1-27.94-1-31.65-3.25S348.85,370,348.85,363.55c5,5.85,9.2,5.32,10.41,3.57,1.1-1.59.65-9.81,3.47-8.58C364.85,359.47,363.54,367.14,364,369Z"/><path class="cls-7" d="M378.48,276.28S360,155.32,364.71,131s20,15.57,20,15.57l14.84,119.83a5.73,5.73,0,0,1-3.78,3.94,1.66,1.66,0,0,1-1.1,0,1.93,1.93,0,0,1-.82-.83c-1.82-2.94-3.08-6.34-5.64-8.67a2.28,2.28,0,0,0-.81-.53,1.71,1.71,0,0,0-1.94,1.18,5,5,0,0,0,0,2.49,1.81,1.81,0,0,0-2.2-1.54,2.61,2.61,0,0,0-1.84,2.23,4.93,4.93,0,0,0,.66,2.94,4.4,4.4,0,0,0-1.65-.23,3.29,3.29,0,0,0-.64,3.06,9.56,9.56,0,0,0,1.47,2.9c-.84.05-1.4.89-1.7,1.68S379.14,275.76,378.48,276.28Z"/><path class="cls-7" d="M417.78,274.92s25.35-126.24,38.75-150S472,148.11,472,148.11l-26.17,130a6.26,6.26,0,0,1-5.3,2.8,1.88,1.88,0,0,1-1.16-.36,2.15,2.15,0,0,1-.56-1.15c-.88-3.7-1-7.67-2.86-11a2.55,2.55,0,0,0-.66-.83,1.89,1.89,0,0,0-2.44.56,5.54,5.54,0,0,0-.9,2.57,2,2,0,0,0-1.75-2.36A2.86,2.86,0,0,0,427.5,270a5.43,5.43,0,0,0-.34,3.29,4.7,4.7,0,0,0-1.63-.81,3.61,3.61,0,0,0-1.73,3,10.43,10.43,0,0,0,.52,3.53c-.89-.24.06-4.25-.52-3.53S418.65,274.61,417.78,274.92Z"/><circle class="cls-2" cx="355.84" cy="322.87" r="5.62"/><circle class="cls-2" cx="395.89" cy="335.21" r="5.62"/><path class="cls-3" d="M362,358.35a10.16,10.16,0,0,0,4.79-.62,13.23,13.23,0,0,0,3.29-2.07,4,4,0,0,0,1.45-4.76,5.17,5.17,0,0,0-2.62-2.15,17.51,17.51,0,0,0-6.49-1.41c-1.79-.07-3.81.24-4.88,1.84C355.45,352.23,358.59,358,362,358.35Z"/><path class="cls-8" d="M321.74,365.2c-1.41,3.23-1.93,7.07-.4,10.25s5.53,5.26,8.76,3.84c-.71,3,1.3,6.07,3.75,8a7.67,7.67,0,0,0,4,1.81,10,10,0,0,0,4.27-.95l4.24-1.62a6.2,6.2,0,0,0,2.1-1.14,4.94,4.94,0,0,0,1.14-2c1.85-5.61-.67-11.7-3.87-16.67C339.43,356.89,327.57,351.9,321.74,365.2Z"/><path class="cls-8" d="M416.62,387.44c2.4-3.57,6.7-5.31,10.85-6.45,3.45-.94,7.12-1.61,10.59-.75,3.8.95,6.93,3.62,9.56,6.52a24.28,24.28,0,0,1,5.12,8,12.15,12.15,0,0,1-.23,9.29,9.87,9.87,0,0,1-10.37,5.19,15.77,15.77,0,0,0-4.15-.71c-2,.18-3.6,1.69-5.46,2.46-3.19,1.34-6.83.38-10.15-.59a16.39,16.39,0,0,1-5.8-2.56C412.4,404.45,413.87,391.52,416.62,387.44Z"/></svg>