<svg id="Layer_1" data-name="Layer 1" xmlns="http://www.w3.org/2000/svg" xmlns:xlink="http://www.w3.org/1999/xlink" viewBox="0 0 831 768"><defs><style>.cls-1{fill:#27deee;opacity:0.1;}.cls-2{fill:#f9567d;}.cls-3{fill:url(#linear-gradient);}.cls-4{fill:url(#linear-gradient-2);}.cls-5{fill:#222a72;}.cls-6{fill:#28e0e8;}.cls-7{fill:#64f0f4;}.cls-8{fill:#f490ad;}.cls-9{fill:#70e2cf;}.cls-10{fill:#2cb79c;}.cls-11{fill:#fff;}.cls-12{fill:#403f67;}.cls-13{fill:#20c6c6;}</style><linearGradient id="linear-gradient" x1="391.11" y1="402.33" x2="480.06" y2="402.33" gradientTransform="translate(113.82 -103.67) rotate(14.07)" gradientUnits="userSpaceOnUse"><stop offset="0" stop-color="#ecc4d7"/><stop offset="0.42" stop-color="#efd4d1"/><stop offset="1" stop-color="#f2eac9"/></linearGradient><linearGradient id="linear-gradient-2" x1="316.94" y1="327.78" x2="470.08" y2="327.78" gradientTransform="matrix(0.99, 0.16, -0.16, 0.99, 51, -60.36)" xlink:href="#linear-gradient"/></defs><title>Artboard 5</title><ellipse class="cls-1" cx="415.5" cy="522.77" rx="183.13" ry="317.2" transform="translate(-109.51 935.42) rotate(-89.69)"/><path class="cls-2" d="M546.69,464.94C545.2,511.87,409,616.22,344.94,614.37h0q-.71-.27-1.41-.57-.87-.33-1.74-.69c-19.36-7.87-38.22-18.18-52.21-33.7-3.56-3.95-6.83-8.31-8.5-13.36-2.5-7.56-1.16-15.79.2-23.64,9.59-55.31,28-95.46,77.67-124.95,4.71-2.81,9.58-5.56,14.56-8.21h0c24.82-13.23,52.59-24.08,79.93-27.69a81.71,81.71,0,0,1,28.34,1.71,22,22,0,0,0,3.06,9.16c3.11,4.83,8.52,7.57,13.21,10.91C515,415.44,547,454.75,546.69,464.94Z"/><path class="cls-3" d="M478.48,375.25c1.33,10.48,4.27,21.06,2.3,31.44-2.81,14.74-14.93,25.87-27.49,34.09a164.18,164.18,0,0,1-57.43,23.54c-2.78.56-5.72,1-8.39.08-3.74-1.33-6.07-5.25-6.66-9.17s.25-7.91,1.09-11.79L393.39,390a30.19,30.19,0,0,1,2.77-8.62c1.92-3.42,5.06-5.94,8.08-8.42A375.73,375.73,0,0,0,441,338.42c6.88-7.39,13.69-15.25,22.73-19.77,11-5.51,23.31.32,19.19,13A98.62,98.62,0,0,0,478.48,375.25Z"/><path class="cls-4" d="M318.73,286.75a47.19,47.19,0,0,0-.09,9.43c.54,4.39,2.3,8.51,3.77,12.68,8.76,24.79,7.84,52.1,15.86,77.14,2.16,6.76,5,13.41,9.58,18.85s11,9.6,18,10.28c5.69.55,11.33-1.15,16.73-3,15.56-5.36,30.78-12.41,43.39-23s22.49-25,25.37-41.2c.89-5,1.13-10.19,3.2-14.82,1.92-4.29,5.26-7.76,7.76-11.73a34.45,34.45,0,0,0,2.08-32.22,3.15,3.15,0,0,0-4.08-2.26,34.1,34.1,0,0,0-15.24,6.37c-7.13-6.72-8.33-17.42-12.28-26.38-4.36-9.88-12.36-17.91-21.68-23.36s-19.94-8.43-30.64-9.86c-11.55-1.54-23.51-1.3-34.59,2.32-8.34,2.73-21.39,9.18-24.88,18-1.47,3.73-.44,8.88-.74,12.86Q319.52,276.81,318.73,286.75Z"/><path class="cls-5" d="M305.29,198.3c-12.24,12.86-8.41,35.45,4.35,47.79s31.53,16.27,49.29,16.52,35.5-2.62,53.21-1.44c4.63.31,9.62,1.07,12.87,4.37,2.68,2.71,3.66,6.62,4.54,10.32l10.15,42.95c4.11-3.26,5.59-8.75,6.71-13.88s2.33-10.62,6.15-14.22,11.2-3.8,13.48.93c1.28,2.65.55,5.8-.25,8.64a273.76,273.76,0,0,1-11.38,32.42c2.52-3.79,8.33-3.13,12.44-1.18s8.29,4.82,12.78,4c6.42-1.1,9.12-8.63,10.87-14.91,5.34-19.1,13.08-37.49,17.84-56.74s6.42-40-.39-58.61-23.59-34.52-43.38-35.76c-3-.19-6-.06-8.88-.87s-5.5-2.58-8.15-4.09c-14.52-8.24-32.27-9.21-48.67-6.07-17.54,3.36-33.39,10.5-48.6,19.48C336.2,186.29,317,186,305.29,198.3Z"/><path class="cls-6" d="M349.65,614.4c-.59,0-1.17,0-1.75,0h-.39l-1.49-.07-10.6-.64,1.9-11c4.71-25.64,16-49,26.86-71.55,7.65-15.87,15.57-32.27,20.84-48.92a181.31,181.31,0,0,0,8.13-64.59,33.31,33.31,0,0,1-4.84,1.71,28.56,28.56,0,0,1-7.48,1,27.26,27.26,0,0,1-7-.9h-.18l-1.49-.5A23.13,23.13,0,0,1,362,412.16c-5.9-6.88-6.41-15.64-6.81-22.68-.23-4.14-.53-9.3-2.06-10.22-.18-.11-.56-.3-.9-.46a22.47,22.47,0,0,1-4.15-2.51c-11.58-9.22-3.92-24.82-1.41-30,7.11-14.51,7.52-31.43,7.95-49.34.37-15.35.75-31.23,5.48-46.55,5.66-18.31,17.55-35,34.39-48.19A138.82,138.82,0,0,1,448,177a38.38,38.38,0,0,1,8.73-1c22.18,0,45.79,19,52.62,42.3,3.43,11.69,6.67,31.42-4.7,67.5-1.71,5.42-3.58,10.83-5.38,16.07-5,14.62-9.79,28.42-11.58,42.8-1.34,10.83-.95,22.23-.58,33.25.07,2.14.15,4.2.4,6.06a12,12,0,0,0,1.48,4.83c1.19,1.85,3.85,3.6,6.66,5.45,1.11.74,2.26,1.5,3.42,2.32,9.95,7.12,22.62,21.08,31.17,31.77,19.38,24.24,19.14,31.93,19,34.83-.41,12.81-8.45,28.53-23.91,46.71C512,525.56,493.91,542.22,473,558,436.94,585.28,385.61,614.4,349.65,614.4Z"/><path class="cls-7" d="M539.8,462.83c-.75,23.64-37.47,62.61-80.89,93.75-38.32,27.51-81.85,48.91-110.47,48.3H348l-1.43-.07.09-.48c7.74-42.16,34.44-78.38,47.4-119.26A190.34,190.34,0,0,0,401,400.58c-4.38,4.14-9.32,8-15.15,9.55a18.68,18.68,0,0,1-10.66-.24h0a13.5,13.5,0,0,1-6-3.93c-8.23-9.6-.35-28.31-11.15-34.84a36.09,36.09,0,0,1-4.05-2.27c-5.22-4.16-1.73-12.34,1.2-18.33,10-20.49,8.22-44.12,9.37-67.17.52-10.26,1.62-20.4,4.61-30.1,5.82-18.83,18.45-34.33,34.43-46a125.93,125.93,0,0,1,27.36-15,133.4,133.4,0,0,1,17-5.52c.75-.2,1.49-.38,2.24-.56,20.48-4.83,44.13,14.53,50.05,34.71s1.67,41.92-4.65,62-14.74,39.68-17.32,60.56c-1.43,11.5-1,23.15-.66,34.74a68.8,68.8,0,0,0,.49,7,20.79,20.79,0,0,0,2.91,8.7c2.95,4.59,8.1,7.2,12.55,10.37C509.65,415.77,540.1,453.14,539.8,462.83Z"/><path class="cls-6" d="M421.48,340.31l-15.74,15.26c-1.53,1.49-3.11,3.05-3.78,5.07s-.1,4.63,1.81,5.57c3.46,1.68,6.56-2.95,10.2-4.19,3.18-1.07,6.77.72,8.8,3.4s2.87,6,3.65,9.31a46.7,46.7,0,0,1,11.18-17.14c6.19-6,14-10.26,19.81-16.63s9.32-16.25,4.83-23.61a5,5,0,0,0-1.9-2,6,6,0,0,0-2.93-.43c-7.57.18-16.19,1.37-22.27,6.29C428.87,326.32,427.4,334.56,421.48,340.31Z"/><path class="cls-8" d="M495.52,259.79a67.6,67.6,0,0,1-130.95,23.56c.52-10.26,1.62-20.4,4.61-30.1,5.82-18.83,18.45-34.33,34.43-46a125.93,125.93,0,0,1,27.36-15A67.59,67.59,0,0,1,495.52,259.79Z"/><path class="cls-2" d="M427.58,315.9a30.47,30.47,0,0,1,2,6.11c.28,2.13-.32,4.56-2.14,5.7a4.89,4.89,0,0,1-3.06.66c-2.83-.27-5.16-2.5-6.35-5.08A24.72,24.72,0,0,1,416.3,315l-.66-7.61c-.33-3.65-.54-7.7,1.71-10.59,2.69-3.46,10.86-5.44,10.93.24,0,2.78-2,6.12-2.11,9.13A25.31,25.31,0,0,0,427.58,315.9Z"/><path class="cls-9" d="M469.22,218.84c-6.92,2.83-11.59,9.4-14.88,16.11s-5.63,14-9.87,20.12a39,39,0,0,1-28.4,16.53c-6.21.53-12.65-.43-18.57,1.51-6.26,2.06-11.14,7.19-14.3,13s-4.82,12.26-6.44,18.65a77.83,77.83,0,0,1-2.94-16c-.45-5.92-.16-12.14,2.65-17.37,4.24-7.87,13.16-11.86,21.6-14.79s17.51-5.67,23.44-12.36c4.89-5.51,6.92-12.92,10.35-19.44,6.65-12.63,19.86-22.26,34.13-22.2,10.58,0,27.33,8.55,27.84,20.64-3.68,1.23-7.12-3.09-10.48-4.37A19.36,19.36,0,0,0,469.22,218.84Z"/><path class="cls-10" d="M481.56,221.38a11.16,11.16,0,0,1,2.07,3.3l9.24,19.48c1.67-2.16,1.82-5.1,1.79-7.82,0-3.18-.21-6.34-.39-9.51a9.36,9.36,0,0,0-.83-4.07,8.28,8.28,0,0,0-3.69-3.14,30.23,30.23,0,0,0-7.84-2.76c-1.14-.23-6.23-1-5.89,1.08C476.26,219.42,480.47,220.33,481.56,221.38Z"/><path class="cls-2" d="M443,217.46c1.93,8.44,7.33,15.65,13.07,22.13,5,5.63,10.48,11.18,12.89,18.3a30.76,30.76,0,0,1,.86,15,39.64,39.64,0,0,1-12.67,22.84A36.82,36.82,0,0,1,432.74,305a3.63,3.63,0,0,1-1.46-.22,2.69,2.69,0,0,1-1.21-3.09,9.36,9.36,0,0,1,1.73-3.13c5.37-7.63,6.94-17.55,5.3-26.73s-6.26-17.65-12.23-24.81c-5-6-11.13-11.63-12.51-19.26-1.57-8.62,3.47-17.78.55-26a80.06,80.06,0,0,1,24.5-13.19c7.21-2.37,15,.61,9.89,8.5C443.16,203.32,441.21,209.86,443,217.46Z"/><path class="cls-5" d="M475.09,242.79c6.48,6.41,12.23,15.29,10,24.12a2.68,2.68,0,0,1-1.13,1.82,2.51,2.51,0,0,1-1.92-.06c-3.05-1.06-5.23-3.67-7.49-6-12.26-12.55-30.38-18.19-47.92-18s-34.63,5.68-50.67,12.78c-4.72,2.08-10.12,5.46-9.91,10.61-.56-14,10.3-40.17,24.09-46.19,16.29-7.11,39.48-3.75,55.48,2.23A83.31,83.31,0,0,1,475.09,242.79Z"/><path class="cls-11" d="M494.12,249.48c-2.21,2.76-6,3.6-9.56,3.7s-7.13-.35-10.53.57a13.79,13.79,0,0,0-9.88,11.41,5.55,5.55,0,0,0,.32,3c.8,1.67,2.81,2.44,4.67,2.45a35.37,35.37,0,0,0,5.48-.82,17,17,0,0,1,13.45,4,7.74,7.74,0,0,0,2.74,1.93,4.42,4.42,0,0,0,3.06-.4,10,10,0,0,0,4.9-6.1,29.87,29.87,0,0,0,1.05-7.95c.22-5.65-2.29-16.22-6-20.86C491.79,242.55,496,247.11,494.12,249.48Z"/><path class="cls-9" d="M475,293.05c-1.86-5-3.94-9.94-7.07-14.24s-7.43-7.91-12.56-9.34c-3.48,6-.38,13.55,2.71,19.78s6.12,13.83,2.51,19.78c-1.4,2.31-3.65,4-5.19,6.22a12.67,12.67,0,0,0-.88,12.67c6.8-2.87,8-11.75,11.65-18.15a7.19,7.19,0,0,1,3.57-3.5c1.61-.56,3.75.23,4.08,1.9a4.33,4.33,0,0,1-.26,2.1,48.53,48.53,0,0,1-16.42,24.1c4.38,1.43,9-1.5,12.17-4.83,5.63-5.89,9.25-13.29,12.17-20.8.51-1.31,2.43-4.58,2.17-5.93-.35-1.88-.55-.85-1.95-2.06C478.5,298,476.66,297.56,475,293.05Z"/><path class="cls-2" d="M449.62,281.29c-12.87,2.75-26.17,2.51-39.33,2.26a11.81,11.81,0,0,0,11,4.34l-6.2,4a2.21,2.21,0,0,0-.94.9c-.4.88.42,1.82,1.22,2.37,3.47,2.4,7.84,3,12,3.41,16.72,1.68,35,1.22,48.42-8.86a39.35,39.35,0,0,0,9.85-52.24v14l-2-2.18c0,3.68.64,9.35-.7,12.81s-5.8,6.53-8.7,8.65A64.46,64.46,0,0,1,449.62,281.29Z"/><path class="cls-5" d="M415.58,276.76c-11.79.82-24.13,4.84-31.26,14.26a16.13,16.13,0,0,0-3.59,8.59,8.78,8.78,0,0,0,3.88,8.1,2.92,2.92,0,0,0,2.51.42,3.71,3.71,0,0,0,1.48-1.46c8.54-12.3,21.4-22.42,36.28-24.17,5.72-.67,11.5-.09,17.25.36q9.4.74,18.84,1c1.65,0,3.81-.33,4-2,.05-.42-15.9-4.36-18.13-4.43C436.47,277.12,426,276,415.58,276.76Z"/><path class="cls-6" d="M381.71,321c4.86-1.74,11.13-1,14.25-5.1a13.45,13.45,0,0,0,1.87-4.09l7.27-22.16a89.47,89.47,0,0,1,4.3-11.33,45.56,45.56,0,0,1,34.26-24.78A20.5,20.5,0,0,1,439.75,264l8.88-1c-8.49,13.31-24.9,21.76-28.59,37.11-2,8.39.31,17.18,3.09,25.35.54,1.61,1.11,3.32.66,5-.62,2.28-3.11,3.65-5.48,3.71a15.42,15.42,0,0,1-6.76-1.9,133.94,133.94,0,0,1-15.62-8.61c-1.75-1.12-3.64-2.57-3.78-4.64"/><path class="cls-11" d="M443.29,313.86c.23-5.81,1.29-11.67.35-17.41-.14-.81-.57-1.83-1.4-1.75a1.59,1.59,0,0,0-.75.36c-2.3,1.75-3.43,4.66-3.88,7.52s-.33,5.77-.73,8.63c-.74,5.38-3.23,10.34-4.69,15.56-.6,2.16-1,4.64.28,6.5,3,4.42,11.88,2.39,13.26-2.48.64-2.26-.84-4.79-1.39-6.9A34.22,34.22,0,0,1,443.29,313.86Z"/><path class="cls-11" d="M406.42,231.18c13.13-11.67,27.48-22.64,44.24-27.91,1,1.46-.61,3.32-2.11,4.29-6.81,4.36-14.37,7.4-21.36,11.46s-13.6,9.45-16.88,16.84c-.7,1.57-1.28,3.28-2.57,4.42-1.77,1.59-4.44,1.7-6.41,3-3.12,2.1-3.57,6.41-5.06,9.87a4.94,4.94,0,0,1-2.69,3c-7.34,2.38-1.18-9.3-.08-11C397,239.8,401.68,235.39,406.42,231.18Z"/><path class="cls-11" d="M385.55,265a17.53,17.53,0,0,0-2.52,2.27,8.81,8.81,0,0,0-2.09,5.75,2.4,2.4,0,0,0,.7,1.92,1.94,1.94,0,0,0,2.1,0c1.37-.75,2-2.37,2.34-3.89a10.76,10.76,0,0,1,1.57-4.37c.65-.8,2.89-2.57,1.88-3.85C388.66,261.73,386.37,264.33,385.55,265Z"/><path class="cls-2" d="M468.82,209.58c7.76,6.62,9.73,17.89,9,28.06a10,10,0,0,1-1.29,4.92c-1,1.43-2.88,2.35-4.44,1.63a4.92,4.92,0,0,1-2.21-2.82c-1.67-4.11-2-8.66-3.4-12.86-3.67-10.85-14-17.81-23.65-24-1.77-1.12-3.63-2.28-5.72-2.45-2.67-.2-5.17,1.24-7.79,1.8A12.19,12.19,0,0,1,418.68,201a2.88,2.88,0,0,1-.91-1.28c-.37-1.39,1.12-2.51,2.39-3.19,8.87-4.71,18.93-8.37,27.19-.51,3,2.82,4.85,4.87,8.71,6.64C460.47,204.66,465.08,206.38,468.82,209.58Z"/><path class="cls-8" d="M472.81,205.86c7.75,6.63,9.73,17.9,9,28.07a10,10,0,0,1-1.28,4.92c-1,1.43-2.88,2.35-4.44,1.63a4.92,4.92,0,0,1-2.21-2.82c-1.68-4.11-2-8.66-3.41-12.86-3.67-10.85-14-17.81-23.64-24-1.77-1.12-3.63-2.28-5.73-2.45-2.67-.2-5.16,1.24-7.78,1.8a12.19,12.19,0,0,1-10.65-2.92,2.88,2.88,0,0,1-.91-1.28c-.37-1.39,1.11-2.52,2.38-3.19,8.88-4.71,18.94-8.37,27.2-.51,3,2.82,4.85,4.87,8.71,6.64C464.45,201,469.07,202.67,472.81,205.86Z"/><path class="cls-12" d="M394.6,233.28c5.09-3.48,11.75-3.22,17.9-2.83L436.59,232c4.42.28,9,.61,12.89,2.7,2.2,1.18,4.19,2.92,6.64,3.4s5.57-1.15,5.33-3.64A5.21,5.21,0,0,0,460.3,232c-6-8.3-15.73-13.25-25.71-15.46s-20.32-2-30.54-1.75c-3.07.07-6.22.16-9,1.38a19.89,19.89,0,0,0-5.81,4.23C384.61,224.9,375,235,377,242.27,379.55,251.63,391.38,235.48,394.6,233.28Z"/><path class="cls-2" d="M489.72,271.72a19.11,19.11,0,0,1-11.2,1.21c-2.16-.49-4.25-1.49-6.46-1.33s-4.48,2.22-3.77,4.31a5.16,5.16,0,0,0,2.6,2.48l8.63,5a16.44,16.44,0,0,0,5.86,2.43c3.33.43,6.66-1.27,9-3.71a29.47,29.47,0,0,0,5.14-8.6C503.92,263.61,493.79,270.12,489.72,271.72Z"/><path class="cls-8" d="M491.32,269.09a19.22,19.22,0,0,1-11.21,1.22c-2.15-.5-4.25-1.5-6.45-1.34s-4.49,2.22-3.78,4.31a5.26,5.26,0,0,0,2.6,2.49l8.63,5a16.56,16.56,0,0,0,5.87,2.43c3.33.43,6.66-1.27,9-3.7a30,30,0,0,0,5.15-8.6C505.51,261,495.38,267.49,491.32,269.09Z"/><path class="cls-9" d="M428.6,405.89a4.19,4.19,0,0,0,2.32,2.42c1.45.39,2.94-.82,3.44-2.24a10,10,0,0,0,.11-4.47c-.7-6.23-.35-12.75,2.34-18.4,4-8.4,12.52-13.7,17.87-21.32,1.39-2,2.61-4.31,2.38-6.73s-2.5-4.75-4.87-4.24a5.86,5.86,0,0,0-2.95,2c-3.78,4.17-5.87,9.48-9.19,14-2.43,3.29-5.3,6.2-7.68,9.53C426.21,385.05,423.63,396,428.6,405.89Z"/><path class="cls-8" d="M455.91,385.43a9.68,9.68,0,0,0,1.85,5.57,4.55,4.55,0,0,0,5.32,1.45c1.48-.76,2.25-2.48,3.67-3.36,3.22-2,7,1.25,10.47,2.68a11.45,11.45,0,0,0,14-5.21c2.37-4.66,1.21-10.43,3.14-15.29,2.31-5.82,8.4-9,14-11.8L519.53,354c3.7-1.81,7.54-3.65,11.65-3.78s8.6,2,9.93,5.85a2.93,2.93,0,0,1,0,2.36c-.41.72-3.11,5-3.91,5.2-2.94.73-4.25-3.75-7.12-2.81s-5.27,4.57-3.36,6.91c.83,1,2.28,1.52,2.75,2.74.91,2.33-3,7-5.51,7.45-3.73.63-7-1.6-9.78.92-6,5.33-5.31,16.29-12.37,20.08-5.69,3.06-12.58-.62-19-.44-6.66.19-12.67,4.55-19.32,4.75-8.69.27-16.69-7.89-16.25-16.57.3-5.86,3.77-11,7.12-15.84,1.86-2.67,6.26-6.79,5.66-1.3S455.47,379.23,455.91,385.43Z"/><path class="cls-2" d="M453.19,389.66a9.77,9.77,0,0,0,1.84,5.57,4.56,4.56,0,0,0,5.32,1.45c1.49-.77,2.26-2.49,3.68-3.36,3.21-2,7,1.25,10.46,2.68a11.44,11.44,0,0,0,14-5.21c2.38-4.66,1.22-10.43,3.15-15.29,2.31-5.82,8.4-9.06,14-11.8l11.12-5.44c3.69-1.8,7.53-3.65,11.65-3.77s8.59,1.95,9.93,5.85a2.93,2.93,0,0,1,0,2.36,3.11,3.11,0,0,1-2.06,1.27c-2.93.73-6.09.18-9,1.11s-5.26,4.58-3.35,6.92c.83,1,2.28,1.51,2.75,2.73.91,2.34-2.37,3.95-4.84,4.37-3.73.63-7.63,1.49-10.45,4-6,5.33-5.31,16.29-12.37,20.08-5.69,3.05-12.58-.63-19-.44-6.66.19-12.66,4.54-19.32,4.75-8.68.26-16.68-7.9-16.24-16.58.29-5.86,3.77-11,7.12-15.83,1.86-2.67,6.26-6.79,5.66-1.31S452.74,383.45,453.19,389.66Z"/><path class="cls-8" d="M513.45,326.37c3.6-6.33,5.71-13.57,10.33-19.2,2.7-3.29,7.25-6.06,11.05-4.14,2.21,1.11,3.46,3.51,4.28,5.85a5.2,5.2,0,0,1,.38,2.51c-.45,2.66-4,3.15-6.33,4.44-4.15,2.25-5.12,7.65-5.73,12.33s-1.83,10.1-6.12,12c-3.87,1.76-10.17-.22-13-3.25C505.08,333.54,511.54,329.75,513.45,326.37Z"/><path class="cls-2" d="M522.73,319.68c-1.07,4.23-1.18,8.68-2.63,12.8-.84,2.39-2.38,4.84-4.84,5.48-2,.52-4.14-.33-6.06-1.18-1.18-.52-2.54-1.33-2.53-2.61a3.51,3.51,0,0,1,1-2,50.44,50.44,0,0,0,6.62-12.32c1.43-3.5,2.85-7.18,5.64-9.74,1.51-1.39,9.56-4.81,9.22-.56-.1,1.23-3.09,3.11-3.85,4.18A18,18,0,0,0,522.73,319.68Z"/><path class="cls-6" d="M497.54,348.89c-1.54-7.14-2.86-15.35,1.6-21.14a4.94,4.94,0,0,1,3.78-2.26c2.73.08,3.95,3.62,3.46,6.31s-1.94,5.26-1.59,8c.66,5.21,7.14,7.44,9.71,12,1.87,3.34,1.4,7.51.25,11.16-1.35,4.28-5,27.25-11.59,17.78-2.46-3.54-1.33-10.21-1.88-14.22C500.47,360.61,498.8,354.71,497.54,348.89Z"/><path class="cls-13" d="M505.1,360a42.74,42.74,0,0,0-3.22-9.13l-2.94-6.63a9.43,9.43,0,0,0-2.13-3.4c-1.26,1.71-.61,4.1,0,6.13a101.42,101.42,0,0,1,4.38,24c.23,3.95.36,8.25,2.9,11.29a2.41,2.41,0,0,0,1.41,1c4.18.6.47-8.24.3-9.81C505.34,369,505.92,364.45,505.1,360Z"/><path class="cls-6" d="M504.72,301.6a10.79,10.79,0,0,1,3.38-7.85,6.25,6.25,0,0,1,2.35-1.48,5.65,5.65,0,0,1,5.67,1.8,5.48,5.48,0,0,1,1.3,2.25,6.56,6.56,0,0,1-1.26,5.23C513.26,305.78,504.77,310.12,504.72,301.6Z"/><path class="cls-8" d="M537.74,324.28a7,7,0,0,1,2.18-5.06,4.18,4.18,0,0,1,1.52-1,3.67,3.67,0,0,1,3.65,1.16,3.52,3.52,0,0,1,.84,1.46,4.22,4.22,0,0,1-.81,3.37C543.25,327,537.78,329.78,537.74,324.28Z"/></svg>