<svg id="Layer_1" data-name="Layer 1" xmlns="http://www.w3.org/2000/svg" viewBox="0 0 831 768"><defs><style>.cls-1{fill:#27deee;opacity:0.1;}.cls-2{fill:#20cece;}.cls-3{fill:#28e0e8;}.cls-4{fill:#64f0f4;}.cls-5{fill:#fff;opacity:0.15;}.cls-6{fill:#f9567d;}.cls-7,.cls-8{fill:none;stroke:#f9567d;stroke-miterlimit:10;}.cls-7{stroke-width:0.74px;}.cls-8{stroke-width:2.97px;opacity:0.44;}</style></defs><title>Artboard 5 copy</title><ellipse class="cls-1" cx="415.5" cy="530.75" rx="183.13" ry="317.2" transform="translate(-117.49 943.36) rotate(-89.69)"/><path class="cls-2" d="M646.53,362.69c0,98.85-63.87,182.79-152.6,212.8a224.18,224.18,0,0,1-72,11.79c-124,0-224.6-100.56-224.6-224.59q0-8.82.68-17.46c1.14,32.34,23.17,64.54,66,89.29,75.86,43.8,192.15,49.93,278.59,18.23a243.57,243.57,0,0,0,38.16-17.66c42.75-24.66,64.43-56.93,65.1-89.37Q646.53,354.12,646.53,362.69Z"/><path class="cls-3" d="M645.9,345.69v0c-.67,32.44-22.35,64.71-65.1,89.37a243.57,243.57,0,0,1-38.16,17.66c-86.44,31.7-202.73,25.57-278.59-18.23-42.87-24.75-64.9-56.95-66-89.29a222.37,222.37,0,0,1,3.41-25.35c20-103.56,111.1-181.8,220.51-181.8q8.67,0,17.17.65C542.25,146.52,626,224,643.25,324.21,644.47,331.25,645.36,338.43,645.9,345.69Z"/><path class="cls-4" d="M404.94,165.32c.73,2.18,1.53,4.45,3.17,6.05s4.43,2.31,6.27.93c-.69,3.86-4.17,6.45-7,9.17a36,36,0,0,0-9.92,17.31c-.81,3.36-1.16,6.89-2.76,9.94-5.65,10.74-22.85,9.75-29.72,19.75-1.08,1.57-1.84,3.33-2.87,4.93-2.3,3.59-5.84,6.16-9.3,8.66-.83-5.71.61-11.48,2-17.06a204.72,204.72,0,0,1,6.71-22.54,27,27,0,0,0,2.1-7.18c.21-2.5-.51-5.23-2.49-6.77-1.65-1.29-4.26-2-4.46-4.08-.16-1.69,1.48-2.94,2.94-3.81a214.64,214.64,0,0,1,28.13-14.07,12.68,12.68,0,0,1,5.48-.92c1.92.08,3.91.33,5.71-.36a28.54,28.54,0,0,1,2.88-1.3C402.88,163.7,404.6,164.32,404.94,165.32Z"/><path class="cls-4" d="M257.12,210.41A109,109,0,0,0,243,245.49a45.1,45.1,0,0,1-2.31,8.6c-1.9,4.36-5.38,7.8-8.23,11.61-6.27,8.41-9.5,18.79-10.74,29.2s-.63,21,.14,31.42c.62,8.58,1.42,17.42,5.47,25,4.55,8.55,12.87,14.82,16.42,23.83,1.13,2.89,1.78,6.07,3.74,8.48s5.91,3.63,8.15,1.48c-.84-1.82-3.09-2.48-4.47-3.93-4.29-4.49,1.82-12.6-1.37-17.92-1.2-2-3.55-3.21-4.33-5.4-1.29-3.67,2.53-7.79,1-11.37a13.18,13.18,0,0,0-7.5,3.3,2.92,2.92,0,0,1-1.37.87c-.91.15-1.68-.65-2.19-1.41a17.85,17.85,0,0,1-1.94-14.45,29.27,29.27,0,0,1,7.79-12.67,5.17,5.17,0,0,1,2.57-1.67c1.75-.33,3.31,1,5,1.59,2.9.94,6.76-.37,8.66,2,1.1,1.36.91,3.3,1,5.05s.89,3.83,2.62,4.06c1.89.25,3.23-2,3.23-3.87s-.79-3.76-.65-5.66c.31-4.3,4.87-6.82,7.28-10.4s2.6-7.92,4.73-11.5c1.86-3.11,4.94-5.26,7.93-7.31l10.74-7.38a2.39,2.39,0,0,1,2.93-.12,34,34,0,0,0,1.55,7.25,36.82,36.82,0,0,0,18.69-13.91l-10.45,1.09c-2.11-2.59.6-6.42,3.58-7.93s6.69-2.43,8.15-5.43,0-6.29-1.31-9.21c-2.7-5.9-5.25-12.12-5.08-18.6.07-2.86.67-5.69.64-8.55a2.75,2.75,0,0,0-.56-1.93c-1.14-1.17-3,.13-4.07,1.39a122.45,122.45,0,0,0-19.24,32.74c-1.81.1-3.08-2-3.07-3.78s.85-3.53,1.19-5.32c1.43-7.64-6.13-14.37-6.16-22.14a3.23,3.23,0,0,1,.39-1.79,3.9,3.9,0,0,1,2.39-1.27,39.59,39.59,0,0,0,18.25-10.72,11.26,11.26,0,0,0,1.54,5.08c1,1.46,3.07,2.38,4.65,1.55s2-2.89,1.95-4.67-.47-3.64.17-5.3c.74-1.9,2.62-3.06,4.38-4.09,3.73-2.17,9.29-5.12,13-7.3a27.2,27.2,0,0,0-3.41,12.42c-.07,2.16.12,4.39-.62,6.42a14.17,14.17,0,0,0-1.31,3.6c-.11,1.28.88,2.78,2.14,2.53a3.15,3.15,0,0,0,1.46-1,25.64,25.64,0,0,1,8.47-5.56,5,5,0,0,0,2.63-1.72,3.89,3.89,0,0,0,.42-1.87,17.53,17.53,0,0,0-.82-6c-.73-2.28-1.95-4.54-1.67-6.91.33-2.76,2.61-4.94,3.13-7.66.44-2.3-.42-4.74.18-7a11.19,11.19,0,0,1,2.63-4.23,53.71,53.71,0,0,1,6.81-7.09c7.94-6.48,18.71-7.94,28.15-11.91,1.56-.65,3.33-1.77,3.21-3.45-.13-1.89-3.17-2.82-5.06-2.88a29.15,29.15,0,0,0-23.11,10.37c-1.12,1.35-2.21,2.88-3.86,3.49s-4-.35-3.94-2.11c0-1.36,1.4-2.61.91-3.87-2-.5-4.65.34-5,2.39s2.15,4.33,1.17,6.29-3.87,1.21-5.35-.26-2.62-3.54-4.65-4.08a12.31,12.31,0,0,1,1.3-5.49,12.05,12.05,0,0,0-8.46,7.08,2.57,2.57,0,0,0-.08,2.35,2.51,2.51,0,0,0,1.38.87c1.73.57,3.62.67,5.22,1.54s2.79,3,1.81,4.51c-.79,1.26-2.54,1.46-4,1.23s-2.93-.77-4.39-.49c-4,.75-5.71,6.95-9.71,6.48-1.34-1.74.27-4.26,2.1-5.47s4.15-2.19,4.83-4.28l-5.58.11a14.56,14.56,0,0,1,2.54-7c-5.16.84-10.64,3.4-12.37,8.33-.73,2.08-.7,4.35-1.28,6.48s-2.06,4.3-4.25,4.54a98.8,98.8,0,0,1-6.58-15.16,92.24,92.24,0,0,0-13.65,13.58,20.18,20.18,0,0,1-4.29,4.41c-3.36,2.22-8.16,2.25-10.61,5.44a27,27,0,0,1-1.87,2.7C260.44,207.85,258.66,207.94,257.12,210.41Z"/><path class="cls-4" d="M257.13,394.6c-1.48,5.76-2.86,11.72-2,17.6.7,4.77,2.84,9.2,4.89,13.56q6,12.75,11.3,25.79c4.58,11.24,8.79,22.72,10.92,34.67.87,4.87,1.38,9.81,2.34,14.67a82.16,82.16,0,0,0,15.16,33.75c3.36,4.43,7.95,8.85,13.5,8.6a2,2,0,0,0,1.36-.43c1-.93-.2-2.48-1.24-3.37-8.45-7.15-10.23-21-3.87-30,3.28-4.67,8.17-7.9,12.29-11.86,1.13-1.08,2.27-2.38,2.3-3.95,0-1-.44-2-.52-3-.19-2.44,1.83-4.5,4-5.7s4.55-2,6.31-3.68c2.58-2.5,3.1-6.44,3-10s-.67-7.27.31-10.73c1.21-4.3,4.69-7.84,5.14-12.28.42-4.17-2-8.18-5.14-11s-6.93-4.7-10.43-7a49.66,49.66,0,0,1-17.57-20.65c-1.46-3.23-2.84-6.92-6-8.51-2.19-1.1-4.88-.95-7-2.18-4.72-2.71-5-10.94-10.3-12.06-1.51-.32-3.07.08-4.61.14a10.52,10.52,0,0,1-8.32-3.71c-1.36-1.64-2.64-4.4-5.2-4.16-2,.18-2.38,1.8-3.56,3.09C260.55,386.09,258.49,389.29,257.13,394.6Z"/><path class="cls-4" d="M258.64,349.74c.86.57,1.87.83,2.75,1.37a2.55,2.55,0,0,1,1.4,2.5,9.86,9.86,0,0,1-.58,1.34c-.66,1.84,1.15,3.69,3,4.3s3.93.56,5.64,1.49c.9.5,1.65,1.23,2.54,1.73,3.11,1.71,7,.1,10.51.63-.24-1.86-.71-3.89-2.24-5a7.6,7.6,0,0,0-3.45-1,35.7,35.7,0,0,0-4.61-.4,6.8,6.8,0,0,1-2.07-.17c-2.4-.77-2.91-4.26-5.22-5.25-1.17-.5-2.14-.52-3.13-1.41-.74-.66-1.2-1.66-1.92-2.37a15.28,15.28,0,0,0-4.45-2.93A4.61,4.61,0,0,0,258.64,349.74Z"/><path class="cls-4" d="M387.14,235a1.77,1.77,0,0,0,.77.88c5.34,3.76,20.11,3.23,13.41-6.11a7.09,7.09,0,0,0-7.75-3.1C390.73,227.42,386.18,231.69,387.14,235Z"/><path class="cls-4" d="M538.39,170.67c-1.52-.8-3.25,1.15-3.06,2.85s1.48,3,2.51,4.4,1.86,3.22,1.08,4.74a13.68,13.68,0,0,1-7.41-3.85,9.51,9.51,0,0,1-8.94,2.09,18.14,18.14,0,0,1-8.08-5c-1.08-1.06-2.18-2.24-3.65-2.57a24.09,24.09,0,0,0-3.4,0c-2.35-.16-4.26-1.84-6.23-3.13-6.11-4-13.76-4.69-21.06-5.23-1.13.88.21,2.6,1.47,3.28a42.79,42.79,0,0,0,26,4.63c2.08,1.81-1.26,4.9-1.24,7.66,0,1.62,1.22,2.93,2,4.34a9.54,9.54,0,0,1-2.07,11.67,12.12,12.12,0,0,1-4.37-5.09c-2.41,1.53-.85,5.25,1,7.42s3.8,5.53,1.74,7.49c-1.71,1.63-4.5.48-6.53-.73-4.66-2.79-9.84-6.35-10.35-11.75-.29-3.21,1.14-6.72-.45-9.52-4.67,5.7-2.5,15.56,4.14,18.78,1.55.76,3.3,1.21,4.61,2.34,2.91,2.53,1.74,8.17-1.94,9.34a4.71,4.71,0,0,0-5.49-2.78,23,23,0,0,0,.44,7,4.24,4.24,0,0,1-5.31-.91c.68,1.29-.62,2.91-2.06,3.12a7,7,0,0,1-4.13-1.18L466.29,214a23,23,0,0,0-6.4-2.62,11.66,11.66,0,0,0-10.43,3.38c-3.93,4.16-4.24,10.55-7.12,15.49-1.66,2.85-4.14,5.14-5.91,7.93s-2.74,6.48-1.1,9.34c.84,1.46,2.26,2.51,3.12,3.95,3.05,5.11-1.72,13.05,2.64,17.1,5.44-1.5,11.91-4.14,12.56-9.75.47-4-2.42-7.56-3.58-11.42A14,14,0,0,1,454.26,233l6.68,19.21c.66,1.93,1.34,4,.8,6a9.93,9.93,0,0,1-2.94,4.2c-3.53,3.48-7.82,7-12.76,6.66-1.43-.11-2.89-.55-4.27-.15-1.81.53-2.88,2.33-4,3.84a18.89,18.89,0,0,1-6,5.14,3.8,3.8,0,0,1-2.32.62c-1.79-.26-2.43-2.47-2.78-4.25A45.47,45.47,0,0,0,421.85,261c-.89-1.6-2.15-3.32-4-3.42s-3.26,1.46-4.4,2.88l-8.19,10.19a4.09,4.09,0,0,0-.9,1.54c-.46,2,1.95,3.29,3.9,3.86,3.74,1.1,8.2,3,8.61,6.85.26,2.51-1.4,5-.93,7.47.59,3.13,4.41,5.64,3.34,8.64-1.64,4.61-10.38.34-13.05,4.44-1.48,2.29.22,5.19,1,7.81,1,3.29.36,6.86,1.17,10.2s4.15,6.61,7.33,5.3a6.67,6.67,0,0,0,2.36-1.87c3.19-3.55,5.21-8,7.82-11.95s6.15-7.77,10.8-8.84a8.06,8.06,0,0,1,4.74.2,12.23,12.23,0,0,1,3.94,3c1.95,1.95,3.95,4,5,6.52s.88,5.81-1.11,7.71A10.89,10.89,0,0,0,459.47,314a10.39,10.39,0,0,1-8.16-4.65c-1.42-2.18-1.81-5.42.13-7.16s5.22-1,7.1.86,2.79,4.41,3.93,6.78a34.7,34.7,0,0,0,11.95,13.78c.65.43,1.5.85,2.16.44s.61-1.66,0-2.34a20.92,20.92,0,0,0-2.1-1.62c-2.79-2.44-1.12-7,1-10.08s4.47-7,2.56-10.17c2.87-4.15,8.41-5.9,13.42-5.22s9.52,3.41,13.36,6.69c-2.74,3.86-8.13,4.36-12.78,5.21S482,310,481.93,314.77c0,2.83,1.95,5.23,3.83,7.35,3.17,3.58,7.93,7.51,12.15,5.27,1.22-.65,2.27-1.8,3.65-1.86s2.48,2.18,1.16,2.61c-1.06,3.87-5.22,6-8.48,8.3a13.81,13.81,0,0,1-3.86,2.3,11.11,11.11,0,0,1-4.07.21A10.6,10.6,0,0,1,481,337.6c-1.5-1-2.53-2.89-4.31-3.27-2.61-.55-5.41,2.38-7.7,1-.58-.35-1-.94-1.66-1.14a2.43,2.43,0,0,0-2.54,1.22c-.57.83-.88,1.82-1.52,2.6-1.93,2.39-5.92,1.75-8.24-.28s-3.57-5-5.36-7.46a19.84,19.84,0,0,0-6.29-5.63,5.81,5.81,0,0,0-2.57-.91,6.63,6.63,0,0,0-2.4.45c-4.19,1.36-8.33,3.11-12.73,3.41-3.27.23-6.58-.36-9.82.13s-6.63,2.51-7.21,5.74c-2.74,15.25-21.2,26.16-21.76,41.65-.44,12.16,8,22.62,16,31.82,2.22,2.56,4.77,5.3,8.14,5.69,2.05.23,4.07-.46,6.05-1a55.59,55.59,0,0,1,25.09-1.33,6.37,6.37,0,0,1,3.75,1.64c1.41,1.58,1,4,.78,6.1a29.23,29.23,0,0,0,4.15,18.65c1.38,2.23,3.09,4.31,3.87,6.82,1,3.08.44,6.4.1,9.61a76.29,76.29,0,0,0,13.45,51.55c1.09,1.54,2.34,3.11,4.12,3.73,2.27.78,4.78-.22,6.78-1.54,10-6.54,12.82-19.71,20.11-29.13,5.29-6.83,13-11.8,16.88-19.54,6.1-12.25.94-28.47,8.88-39.61,2.79-3.9,6.88-6.66,10.12-10.2s5.67-8.54,4-13.05c-2.77-7.7-13.79-7.5-20.41-12.31-3.18-2.32-5.28-5.81-7.13-9.29a138.69,138.69,0,0,1-11.72-29.65,232.6,232.6,0,0,1,31.59,35.5c1,1.44,2.21,3,3.93,3.42a6.4,6.4,0,0,0,4-.64,21.62,21.62,0,0,0,12.24-23.18,10.49,10.49,0,0,0-2.3-5.17c-1.8-2-4.56-2.77-6.78-4.28s-4-4.61-2.41-6.81c9.25-1.21,19.42-2.23,27.2,2.92a34.87,34.87,0,0,1,7.59,7.51,153.82,153.82,0,0,1,19.85,32.13c.23-8.08-3.63-15.64-5.5-23.49s-.95-17.65,6-21.83a5.14,5.14,0,0,1,3.9-.86c2.7.74,3.2,4.25,3.72,7a22,22,0,0,0,6.77,12.14c1.81,1.65,3.92,3,5.28,5.07,2.06,3.11,2,7.12,2.7,10.78s3.13,7.68,6.87,7.74l-4-16.11,4,1.48c1.21-4.85,2.43-9.8,2.06-14.79s-2.57-10.11-6.84-12.72c12.22-9.9,14.29-30.06,4.33-42.23-1.91-2.35-4.2-4.42-5.67-7.06-1.93-3.47-2.27-7.56-2.57-11.52L614,253.61c-.56-7.29-7.53-15-10.83-21.51-1.27-2.52-2.62-5.13-4.88-6.83-1.86-1.4-4.19-2.05-6.11-3.36-5.69-3.85-6.33-11.9-10.06-17.67-2.49-3.85-6.33-6.6-10.07-9.26C561,187.13,550.42,177,538.39,170.67Z"/><path class="cls-4" d="M623.4,402a19.77,19.77,0,0,1-2.12-4.36,110.37,110.37,0,0,0-8-15.22c-1.24,2.29-.17,5.1.91,7.48l8,17.51c.69,1.52,1.71,4.83,2.39,1.59A8.6,8.6,0,0,0,623.4,402Z"/><path class="cls-4" d="M629.8,408.08a3.82,3.82,0,0,0-.66-.12,1.12,1.12,0,0,0-.72.33c-1,.87-1,2.38-.82,3.67a1,1,0,0,0,.29.63.71.71,0,0,0,.79,0,4.25,4.25,0,0,0,.6-.6c.92-1,2.34-1.33,3.47-2.09.92-.62,4.25-3.9,2.46-4.46C633.22,404.78,631.62,408.32,629.8,408.08Z"/><path class="cls-4" d="M628.72,384.55a10.44,10.44,0,0,0-2,3.49,8.11,8.11,0,0,0-.09,2.36l.26,4.41a1.29,1.29,0,0,0,.11.55.92.92,0,0,0,1.21.26,2.71,2.71,0,0,0,.91-1c1.13.6.14,2.68,1.14,3.49.56.45,1.39.19,2.06-.09l4.27-1.8a1.91,1.91,0,0,0,.73-.43c.63-.68.1-1.74,0-2.65-.12-1.22.6-2.36.75-3.57.33-2.63-2-5.17-1.29-7.72a13.58,13.58,0,0,0,.71-2,4.55,4.55,0,0,0-.36-2L634.72,371c-.28,2.26-1.64,4.61-2.46,6.72A29.93,29.93,0,0,1,628.72,384.55Z"/><path class="cls-4" d="M640.39,387.38c-.56,1.78.48,3.63,1.48,5.21a5.12,5.12,0,0,0,1.32-3.24,19.84,19.84,0,0,0-.32-3,1.11,1.11,0,0,1,.06-.65c.18-.39.69-.47,1.08-.67,1.39-.69,1.36-3,.66-4.15s-1.23-.43-2-.87c-.19-.12-.78-1.08-.88-1.07-.9.06-1.07,2.44-1,3,.07,1,.59,1.83.53,2.81S640.39,386.56,640.39,387.38Z"/><path class="cls-4" d="M635.14,349.58a9.33,9.33,0,0,1,1.67,2.4,6,6,0,0,1-.21,3.16,25.14,25.14,0,0,0-.46,8.25A1.33,1.33,0,0,0,638,363a3.06,3.06,0,0,0,.33-2.11,8.43,8.43,0,0,1-.19-2.17c.4.55,1.37.25,1.66-.37a3,3,0,0,0-.07-2l-1.27-4.72a11.32,11.32,0,0,0-1.28-3.3,25.28,25.28,0,0,1-1.73-3.65c-.23-.51-.84-1.79-1.67-1.38C632.35,344,634.59,348.7,635.14,349.58Z"/><path class="cls-4" d="M526.32,463.6c-2,1.66-4.71,2.66-5.93,4.95a9.93,9.93,0,0,0-.89,3.57c-.34,3.1-.57,6.21-.66,9.32,0,1.26.08,2.76,1.18,3.37a2.75,2.75,0,0,0,2.11.06c3.15-1,4.93-4.31,5.77-7.5s1.11-6.6,2.76-9.46c1.24-2.16,3.18-3.81,4.46-5.94.89-1.49,2.46-5.46.49-6.73-1.52-1-3.58.66-4.45,1.8C529.48,459.24,528.52,461.77,526.32,463.6Z"/><path class="cls-4" d="M599.11,460.42a15.84,15.84,0,0,1-2.16,3.81c-2.37,3.74-3.05,8.27-3.68,12.65-.09.65-.07,1.51.55,1.74s1.17-.4,1.53-.94c1.75-2.64,3.53-5.35,4.33-8.41.65-2.47.64-5.1,1.59-7.47.62-1.53,1.68-3,1.87-4.64.09-.84.18-4.05-.47-4.53C599.6,450.4,599.39,459.45,599.11,460.42Z"/><path class="cls-4" d="M620.94,443a44,44,0,0,0-3.76,8.9c-1,3.92-.92,8.08-2.15,11.95-1.41,4.44-4.53,8.41-4.76,13.07,3.74-1.18,5.77-5.1,7.42-8.66q3.76-8.16,7.54-16.34c3.1-6.72,6.21-13.48,8.11-20.63s2.37-14.94,4.78-22.06C634,420.84,626.55,432.1,620.94,443Z"/><path class="cls-5" d="M646.53,362.69c0,98.85-63.87,182.79-152.6,212.8-3.14-14,3.35-30.62,10.46-44.14,13.39-25.48,28.4-51.61,38.25-78.6,8.23-22.52,12.87-45.64,10-69.49-4-32.7-22-62.11-43-87.46S464.2,248,443.93,222c-22.06-28.25-26.59-66.11-4.83-83.3C542.25,146.52,626,224,643.25,324.21c1.22,7,2.11,14.22,2.65,21.48v0Q646.53,354.12,646.53,362.69Z"/><ellipse class="cls-6" cx="493.21" cy="432.17" rx="5.45" ry="5.56"/><ellipse class="cls-7" cx="493.21" cy="432.17" rx="7.21" ry="7.36"/><ellipse class="cls-6" cx="533.31" cy="337.94" rx="5.45" ry="5.56"/><ellipse class="cls-7" cx="533.31" cy="337.94" rx="7.21" ry="7.36"/><ellipse class="cls-6" cx="633.61" cy="295.07" rx="5.45" ry="5.56"/><ellipse class="cls-7" cx="633.61" cy="295.07" rx="7.21" ry="7.36"/><ellipse class="cls-6" cx="613.2" cy="267.2" rx="5.45" ry="5.56"/><ellipse class="cls-7" cx="613.2" cy="267.2" rx="7.21" ry="7.36"/><ellipse class="cls-6" cx="554.34" cy="204.13" rx="5.45" ry="5.56"/><ellipse class="cls-7" cx="554.34" cy="204.13" rx="7.21" ry="7.36"/><ellipse class="cls-6" cx="527.86" cy="231.91" rx="5.45" ry="5.56"/><ellipse class="cls-7" cx="527.86" cy="231.91" rx="7.21" ry="7.36"/><ellipse class="cls-6" cx="478.8" cy="249.65" rx="5.45" ry="5.56"/><ellipse class="cls-7" cx="478.8" cy="249.65" rx="7.21" ry="7.36"/><ellipse class="cls-6" cx="466.14" cy="264.36" rx="5.45" ry="5.56"/><ellipse class="cls-7" cx="466.14" cy="264.36" rx="7.21" ry="7.36"/><ellipse class="cls-6" cx="471.59" cy="314.22" rx="5.45" ry="5.56"/><ellipse class="cls-7" cx="471.59" cy="314.22" rx="7.21" ry="7.36"/><ellipse class="cls-6" cx="487.77" cy="340.91" rx="5.45" ry="5.56"/><ellipse class="cls-7" cx="487.77" cy="340.91" rx="7.21" ry="7.36"/><ellipse class="cls-6" cx="443.99" cy="363.4" rx="5.45" ry="5.56"/><ellipse class="cls-7" cx="443.99" cy="363.4" rx="7.21" ry="7.36"/><ellipse class="cls-6" cx="287.02" cy="401.41" rx="5.45" ry="5.56"/><ellipse class="cls-7" cx="287.02" cy="401.41" rx="7.21" ry="7.36"/><ellipse class="cls-6" cx="282.88" cy="437.73" rx="5.45" ry="5.56"/><ellipse class="cls-7" cx="282.88" cy="437.73" rx="7.21" ry="7.36"/><ellipse class="cls-6" cx="297.3" cy="465.32" rx="5.45" ry="5.56"/><ellipse class="cls-7" cx="297.3" cy="465.32" rx="7.21" ry="7.36"/><ellipse class="cls-6" cx="321.6" cy="252.48" rx="5.45" ry="5.56"/><ellipse class="cls-7" cx="321.6" cy="252.48" rx="7.21" ry="7.36"/><ellipse class="cls-6" cx="289.6" cy="249.65" rx="5.45" ry="5.56"/><ellipse class="cls-7" cx="289.6" cy="249.65" rx="7.21" ry="7.36"/><ellipse class="cls-6" cx="266.42" cy="242.29" rx="5.45" ry="5.56"/><ellipse class="cls-7" cx="266.42" cy="242.29" rx="7.21" ry="7.36"/><ellipse class="cls-6" cx="256.49" cy="223.84" rx="5.45" ry="5.56"/><ellipse class="cls-7" cx="256.49" cy="223.84" rx="7.21" ry="7.36"/><ellipse class="cls-6" cx="251.04" cy="269.93" rx="5.45" ry="5.56"/><ellipse class="cls-7" cx="251.04" cy="269.93" rx="7.21" ry="7.36"/><path class="cls-8" d="M534.57,337.94s174.77,10.56,99.69,75.88"/><path class="cls-8" d="M613.2,267.2S707.05,279,647.49,370.4"/><path class="cls-8" d="M554.34,204.13s43.41-32.24,81.48,14.15-2.21,84.15-2.21,84.15"/><path class="cls-8" d="M287,401.41s-.46-104.35,116-159.12c0,0,61.61-33,124.88-10.38"/><path class="cls-8" d="M471.59,314.22s-51.51-78.46-182-64.57"/><path class="cls-8" d="M478.8,249.65s-100.65-66.34-209.89-7.36"/><path class="cls-8" d="M254,223.84s-77.75,7.26-43.72,70.25"/><path class="cls-8" d="M466.14,264.36s-71.37,24.71-22.15,99"/><path class="cls-8" d="M282.17,438.89s58.1-142.81,205.6-98"/><path class="cls-8" d="M493.21,432.17S563,469,610.44,459.76s18.77-27.59,18.77-27.59"/><path class="cls-8" d="M251,269.93s-77.59-.13-67.65,103.73S297.3,465.32,297.3,465.32"/></svg>