<svg id="Layer_1" data-name="Layer 1" xmlns="http://www.w3.org/2000/svg" xmlns:xlink="http://www.w3.org/1999/xlink" viewBox="0 0 831 768"><defs><style>.cls-1,.cls-6{fill:#27deee;}.cls-1{opacity:0.1;}.cls-2{opacity:0.2;isolation:isolate;fill:url(#linear-gradient);}.cls-3{fill:#222a72;}.cls-4{fill:#f9567d;}.cls-5{fill:#dd3e6b;}.cls-7{fill:#151f5b;}.cls-14,.cls-8{fill:#fff;}.cls-8{opacity:0.13;}.cls-9{fill:url(#linear-gradient-2);}.cls-10{fill:url(#linear-gradient-3);}.cls-11{fill:url(#linear-gradient-4);}.cls-12{fill:url(#linear-gradient-5);}.cls-13{fill:url(#linear-gradient-6);}.cls-15{fill:url(#linear-gradient-7);}.cls-16{fill:#3b478c;}</style><linearGradient id="linear-gradient" x1="233.61" y1="531" x2="584.8" y2="531" gradientUnits="userSpaceOnUse"><stop offset="0" stop-color="#35c0e9"/><stop offset="1" stop-color="#1a7fc1"/></linearGradient><linearGradient id="linear-gradient-2" x1="384.42" y1="334.93" x2="420.89" y2="334.93" gradientUnits="userSpaceOnUse"><stop offset="0" stop-color="#c1c8f2"/><stop offset="1" stop-color="#1a7fc1"/></linearGradient><linearGradient id="linear-gradient-3" x1="373.74" y1="369.15" x2="431.37" y2="369.15" gradientUnits="userSpaceOnUse"><stop offset="0" stop-color="#ecc4d7"/><stop offset="0.42" stop-color="#efd4d1"/><stop offset="1" stop-color="#f2eac9"/></linearGradient><linearGradient id="linear-gradient-4" x1="293.49" y1="389.6" x2="431.76" y2="389.6" xlink:href="#linear-gradient-2"/><linearGradient id="linear-gradient-5" x1="425.08" y1="245.24" x2="466.59" y2="245.24" xlink:href="#linear-gradient-3"/><linearGradient id="linear-gradient-6" x1="380.15" y1="219.25" x2="451.61" y2="219.25" xlink:href="#linear-gradient-3"/><linearGradient id="linear-gradient-7" x1="314.92" y1="381.31" x2="338.36" y2="381.31" xlink:href="#linear-gradient-3"/></defs><title>Man crossed leg writing</title><ellipse class="cls-1" cx="402.56" cy="541.84" rx="154.97" ry="268.42" transform="translate(-141.46 941.45) rotate(-89.69)"/><path class="cls-2" d="M404.29,597.11a401.42,401.42,0,0,0,33.08-30,20.55,20.55,0,0,1,5.81-4.63,19.82,19.82,0,0,1,6.93-1.35l62.37-4.6c23.3-1.73,48.93-4.51,64.9-21.57,4.7-5,8.42-11.8,7.18-18.58-.69-3.74-2.82-7.06-5.14-10.09-12-15.71-29.94-26.11-48.71-32.37s-38.57-8.73-58.21-11.17L380,451.3c-10.68-1.32-24-1.38-29.19,8.06-2.26,4.13-2.23,9.13-3.92,13.52-4.84,12.6-20.73,15.66-33.61,19.69-16.94,5.31-32,15.19-46.84,24.95-11.71,7.72-23.86,15.88-30.78,28.09-1.86,3.27-3.2,7.65-.81,10.55a9,9,0,0,0,4.44,2.58c12.21,3.83,25.31,0,37.81-2.66a219.52,219.52,0,0,1,44-4.93c6.59-.07,13.75.36,18.78,4.63,14.42,12.24,2,37.74,17.82,50.77C371.75,618.06,392.8,606.41,404.29,597.11Z"/><path class="cls-3" d="M277.37,502.7c-6.26,3-12.51,6.67-17,12.6s-6.86,14.62-4.36,22c.88,2.57,2.41,5,4.58,6.06a9.3,9.3,0,0,0,3.17.83c9.27,1,18.09-4.2,26.44-9,14.78-8.54,29.95-16.32,43.85-26.69a22.35,22.35,0,0,0,5.78-5.62,10.47,10.47,0,0,0,1.55-8.3c-2.2-7.65-13.82-9.59-19.48-7.75-9.58,3.11-19.26,5.8-28.75,9.29C287.82,498,282.54,500.21,277.37,502.7Z"/><path class="cls-4" d="M376.13,347.18c-1.27,3.13-2.68,6.35-5.21,8.59-3.88,3.43-9.49,3.86-14.66,4.13l-31.2,1.57c-3.88.2-7.86.42-11.4,2s-6.59,4.86-6.75,8.74c-.23,5.94,5.86,9.92,11.21,12.53,21.92,10.66,45.37,19.46,69.74,20.06,11.75-17,23.61-34.25,30.89-53.6,2.85-7.59,5-16.07,2.26-23.71-2.25-6.33-7.45-11.09-12.5-15.53-7.55-6.62-17.62-12.61-21.33-.28C383.59,323.64,380.82,335.55,376.13,347.18Z"/><path class="cls-5" d="M390.87,353.89c-1.7,10.6-6.22,22.13-16.17,26.17-10.84,4.4-23.15-2-34.76-.53a2.89,2.89,0,0,0-1.55.53,2.39,2.39,0,0,0-.59,2.16c.5,3.63,4.38,5.63,7.78,7q14.24,5.7,28.79,10.54c2.42.81,4.94,1.6,7.47,1.34a13.48,13.48,0,0,0,6.2-2.55c8.67-6,12.6-16.56,17.24-26,3.17-6.45,6.89-12.69,9.07-19.54s2.69-14.59-.54-21c-2.74-5.47-12.79-13.64-17.34-6.18C391.73,333.57,392.26,345.17,390.87,353.89Z"/><path class="cls-6" d="M295.43,499.78c-10.63,3.71-21.3,8.93-28.9,18.4a30,30,0,0,0-6.36,12.88c-1,4.89-.25,10.38,2.51,14.22a14.16,14.16,0,0,0,10.84,5.64c4.06.23,8.09-.9,12-2.22a136.13,136.13,0,0,0,32.23-16c6.23-4.17,13.17-9.08,20.1-6.88l-.36-14c-.12-4.71-.25-9.53-1.7-13.93a15.13,15.13,0,0,0-5.86-8.22c-3.6-2.25-6.49.38-10,1.83C311.86,494.82,303.56,496.93,295.43,499.78Z"/><path class="cls-3" d="M416.94,419s-126.76-62.4-154.06-50.7-19.5,31.2-13.65,40.95,83.09,85.29,83.09,85.29l11.56-.94,37.79-.77L349,456.28s44.89,36.3,64.39,40.21,95.23-19,93.28-46.28S416.94,419,416.94,419Z"/><path class="cls-7" d="M416.94,419s-126.76-62.4-154.06-50.7-19.5,31.2-13.65,40.95,83.09,85.29,83.09,85.29l11.56-.94,37.79-.77L349,456.28s29,42.68,48.46,46.58,111.16-25.34,109.21-52.65S416.94,419,416.94,419Z"/><path class="cls-4" d="M532.26,506.91s7.54-45-45.12-45S415,446.31,415,446.31s-.32-3.63-.89-9.55v0c-.36-3.65-.82-8.17-1.34-13.26a.15.15,0,0,1,0-.09c-1.21-11.56-2.84-26-4.71-39.88-2.57-19-5.6-36.87-8.63-44.45-7.8-19.5-29.26-52.66-9.76-74.11a82,82,0,0,1,18.73-14.65c21.15-12.6,47.61-19.46,53.43-16.55,0,0,52.65,21.45,62.4,39s26.8,74,26.8,130.53S532.26,506.91,532.26,506.91Z"/><path class="cls-8" d="M421.1,449.5c-3.83-3.32-5.9-7.8-7-12.74v0a68.93,68.93,0,0,1-1.34-13.26.15.15,0,0,1,0-.09c0-1.68-.07-3.34-.12-5A165.83,165.83,0,0,0,408,383.51c-2.57-19-5.6-36.87-8.63-44.45-7.8-19.5-29.26-52.66-9.76-74.11a82,82,0,0,1,18.73-14.65c4.19,5,3.36,8.22-.47,13.59-9.44,13.26-13.93,25.35-8.94,42,4.8,16.12,15.4,29.79,22.6,45C436.08,381.63,435.8,418.87,421.1,449.5Z"/><path class="cls-5" d="M498.93,387.69c-3.18,1.39-6.7,1.7-10.16,1.89a185.48,185.48,0,0,1-75.13-11.39c-5.74,4.13-4.81,12.79-3.27,19.69.46,2.09,1,4.31,2.55,5.79a10.87,10.87,0,0,0,4.32,2.16A371.93,371.93,0,0,0,479.31,420c4.63.65,9.32,1.22,13.69,2.86,6,2.27,11.16,6.46,15.71,11,12.13,12.15,21,27.33,27,43.42,7.36-22.35,14.82-45.52,12.39-68.93a84.53,84.53,0,0,0-23.48-50c-3.65-3.72-36.56-43.84-38.45-39C472.81,353.44,516.92,379.86,498.93,387.69Z"/><path class="cls-9" d="M384.42,350.47l31.27-30.22a3.07,3.07,0,0,1,4.23,0h0a3.07,3.07,0,0,1,.05,4.43l-24.75,24.27Z"/><path class="cls-10" d="M402.63,350.06a19.16,19.16,0,0,0-7.41-1.14,42.18,42.18,0,0,0-17.46,4,7.31,7.31,0,0,0-3.52,2.8c-1,1.78-.42,4.07.74,5.74a24.92,24.92,0,0,0,4.36,4.22,33,33,0,0,1,7.26,9.06c1.76,3.24,3,6.84,5.55,9.54,3,3.23,7.5,4.74,11.9,5s8.79-.54,13.13-1.36c1.75-.33,3.63-.73,4.83-2.05,2.26-2.5,10.52-10.61,9.23-13.71-2.28-5.48-11.94-7.31-16.16-11.44C411.33,357.11,407.6,352.08,402.63,350.06Z"/><path class="cls-11" d="M339.26,405.09l-45.38-79.91a3,3,0,0,1,3.44-4.26l68.26,21.28a11.55,11.55,0,0,1,6.72,5.54l59.46,110.68L361,449Z"/><path class="cls-12" d="M462,232.92c1.8,4.59,4.33,9.05,4.61,14,.4,7-3.82,13.4-8.57,18.55a76.77,76.77,0,0,1-23.33,17.17,7.53,7.53,0,0,1-3.79,1,5.26,5.26,0,0,1-4.05-3.4,15.46,15.46,0,0,1-.85-5.46l-.86-25.5a13.85,13.85,0,0,1,.28-4.22,14.81,14.81,0,0,1,2.7-4.73A176.07,176.07,0,0,0,440.8,220.5c2.27-4.13,4.47-8.45,8-11.52,4.36-3.75,10.59-2.5,10.16,3.69A46.13,46.13,0,0,0,462,232.92Z"/><path class="cls-13" d="M381.67,206a22,22,0,0,0,.66,4.35,29,29,0,0,0,2.69,5.55c5.9,10.76,7.53,23.41,13.11,34.33a26,26,0,0,0,5.83,8,12.93,12.93,0,0,0,9.08,3.37,18.66,18.66,0,0,0,7.47-2.64c6.77-3.64,13.24-8,18.26-13.86s8.47-13.2,8.58-20.88c0-2.37-.24-4.78.36-7.07.56-2.11,1.84-4,2.69-6a16.07,16.07,0,0,0-1.47-15,1.87,1.87,0,0,0-.94-.84,1.82,1.82,0,0,0-1.1.11,16,16,0,0,0-6.55,4.08c-3.78-2.56-5.14-7.4-7.64-11.23A24.29,24.29,0,0,0,421,179.15a38.36,38.36,0,0,0-14.85-2.24,36.57,36.57,0,0,0-15.76,3.68c-3.63,1.88-9.16,5.83-10.1,10.16-.4,1.82.46,4.12.63,6C381.14,199.82,381.4,202.91,381.67,206Z"/><path class="cls-3" d="M368.82,166.28c-4.67,6.85-1.21,17,5.6,21.68s15.75,5.13,23.94,3.9,16.15-3.88,24.4-4.67c2.15-.2,4.51-.23,6.26,1.05a9.87,9.87,0,0,1,2.86,4.41l7.91,19c1.65-1.81,1.91-4.45,2-6.9s.27-5.07,1.76-7,4.87-2.6,6.28-.59a5.76,5.76,0,0,1,.53,4,128.25,128.25,0,0,1-2.8,15.79c.88-1.94,3.6-2.07,5.64-1.48s4.18,1.59,6.19.9c2.87-1,3.55-4.67,3.88-7.69,1-9.2,3.2-18.25,3.95-27.47s0-18.9-4.59-27-13.46-14.12-22.67-13.2a20,20,0,0,1-4.15.27,18,18,0,0,1-4.07-1.27c-7.3-2.71-15.55-1.81-22.87.87-7.82,2.86-14.59,7.34-20.92,12.62C382.15,158.43,373.28,159.74,368.82,166.28Z"/><path class="cls-3" d="M534.92,498s0,25.35-48.75,39-158-5.85-158-5.85-9.75-25.35-5.85-33.15,83.85-3.9,83.85-3.9,78-44.85,99.46-42.9S548.57,460.94,534.92,498Z"/><path class="cls-7" d="M452.93,498.7c-25.24,1-89.49-.2-114.73.79-2.9.11-6,.31-8.27,2.16a10.24,10.24,0,0,0-3.14,6.2c-1.37,7.47,1.38,15.15,5.29,21.66a8.28,8.28,0,0,0,3.13,3.39,8.59,8.59,0,0,0,3.49.64l108.82,4.92c2.78.13,50.27-9.23,48.33-12.4-5-8.13-14.08-13-21.46-19C466.6,500.73,463.39,498.29,452.93,498.7Z"/><polygon class="cls-3" points="332.32 494.55 364.17 534.35 386.13 525.01 365.44 484.8 332.32 494.55"/><path class="cls-6" d="M371.12,535.72s-6.59,23.15-12.81,29.74-15.38,30.2-10.43,35.32,15.55,15.74,39-8.6,37-32.21,38.25-36.6,4.21-16.66-1.83-21.23-23.43-12.45-23.43-12.45-4.57,9.15-8.6,9.7S376.24,528.85,371.12,535.72Z"/><path class="cls-3" d="M413.71,536.64c-6.44,2.48-11,8.17-16.06,12.84-2.87,2.63-6,5-9.07,7.37Q372.37,569.34,357,582.91c-3.42,3-7,6.44-7.85,10.93a15.6,15.6,0,0,0,0,5,10.5,10.5,0,0,0,1.05,3.69,9.13,9.13,0,0,0,4.25,3.67c5.62,2.65,12.43,1.6,17.95-1.24s10-7.28,14.46-11.65l26.89-26.6c4.06-4,8.21-8.15,10.55-13.36,1.92-4.26,2.64-10.1.17-14.33C422.45,535.5,417.14,535.31,413.71,536.64Z"/><path class="cls-4" d="M571.34,419.41s-3.25,8-11.73,10.87a18.54,18.54,0,0,1-6.64,1,.13.13,0,0,1-.12,0,23.72,23.72,0,0,1-4.56-.54c-16.23-3.43-117.74-32.87-127.22-35.62l-.38-.11h0l-.24-.06-.07,0,1.9-14.69,2.83-21.73,93.56,19.22s-32.38-39.62-31.82-48.95-7.17-29.84,9-50.44c0,0,17-12,27-7.66s33.15,80.15,40.84,106a197.18,197.18,0,0,1,6.73,31.2A102,102,0,0,1,571.34,419.41Z"/><path class="cls-14" d="M337.81,407.5l-45.37-79.91a2.94,2.94,0,0,1,3.43-4.26l68.27,21.27a11.53,11.53,0,0,1,6.72,5.55l59.46,110.67-70.78-9.43Z"/><path class="cls-15" d="M321.41,363.29c1.07-1.1,2.85-2.24,3.95-1.17.72.69.56,1.86.34,2.83l-2.3,10.49a16.11,16.11,0,0,1,2.58-5,5.55,5.55,0,0,1,4.95-2.12l-3.55,17.12a31.55,31.55,0,0,1,7.16-7.38c1.21,2.31.21,5.1-.8,7.49L331.06,392c1.5-1.4,3.05-2.75,4.66-4a2.18,2.18,0,0,1,1.44-.64,1.48,1.48,0,0,1,1.19,1.41,4.27,4.27,0,0,1-.44,1.94l-3.09,7.68a4.24,4.24,0,0,1-1.52,2.24,3,3,0,0,1-1.71.36c-2.33-.13-4.22-1.91-5.74-3.68a48.36,48.36,0,0,1-9.63-17.73c-.73-2.47-1.84-5.05-1-7.6C316.3,368.54,319,365.77,321.41,363.29Z"/><path class="cls-3" d="M292.05,381.31,399.63,515.63,371.08,531,249.23,409.26s-14.95-20.45,2.38-34.2S292.05,381.31,292.05,381.31Z"/><path class="cls-16" d="M264.81,394.82,378.9,521.9l-14.74,12.45L249.23,409.26s-11.46-23.09,0-25.56S264.81,394.82,264.81,394.82Z"/><path class="cls-8" d="M571.34,419.41s-3.25,8-11.73,10.87l-6.64,1-.08,0,0,0L421.07,395.08l-.38-.11h0l-.24-.06-.07,0,1.9-14.69,9.12,1.11s119.37,41.66,139,26.48A102,102,0,0,1,571.34,419.41Z"/></svg>