<?xml version="1.0" encoding="utf-8"?>
<!-- Generator: Adobe Illustrator 20.1.0, SVG Export Plug-In . SVG Version: 6.00 Build 0)  -->
<svg version="1.1" id="CONTENTS_1_" xmlns="http://www.w3.org/2000/svg" xmlns:xlink="http://www.w3.org/1999/xlink" x="0px"
	 y="0px" viewBox="0 0 218.6 209.8" style="enable-background:new 0 0 218.6 209.8;" xml:space="preserve">
<style type="text/css">
	.st0{fill-rule:evenodd;clip-rule:evenodd;fill:#F7567C;}
	.st1{fill-rule:evenodd;clip-rule:evenodd;fill:#0C0A3E;}
</style>
<g id="ICON">
	<g>
		<path class="st0" d="M143.2,67.5c0,0,4.7-34.3-16-42.1c-1.2-0.4-2.2-0.7-3.1-0.8c-5.8-1.4-10.7,6.1-11.8,14.3
			c-1.2,9-0.7,18.3,0.2,26.2c-2.1-0.5-5.9-0.6-8.1,0.2c0.9-7.9,1.4-17.4,0.2-26.4C102.3,20.1,89.3,2.3,89.4,2
			c-11.7,28.1-2.1,56.2,5.2,71.2c-1.6,2.1-3.2,4.6-4.3,7.7c-0.2,0.5-0.4,1-0.6,1.4c-2.9,7.1-5.9,14.5-6.9,17.1
			c5.2,1.1,19.7,21.3,22.4,33c-0.9,0.9-1.4,2.1-1.4,3.5c0,2.4,1.7,4.4,4,4.9V95.7c-3.4-0.5-6-3.4-6-6.9c0-3.9,3.1-7,7-7s7,3.1,7,7
			c0,3.5-2.6,6.4-6,6.9v45.1c2.3-0.5,4-2.5,4-4.9c0-1.5-0.6-2.8-1.7-3.7c2.8-10.7,18.4-32,22.9-32.9c-0.8-1.9-4.3-10.5-7.7-19
			c-0.3-0.7-0.6-1.4-0.9-2.1c-1-2.4-2.5-4.5-4.1-6.3c2.3-5.3,4.9-11.7,6.8-18.1C135.7,61.9,143.2,67.5,143.2,67.5z M121.9,35.6
			c-2.9-6.3,0.6-9.8,6.8-6c12.8,7.8,12.6,31.9,12.6,31.9S128.9,51.1,121.9,35.6z"/>
	</g>
</g>
<g id="NAME">
	<g>
		<path class="st1" d="M43.6,191.5l-7.3-23.3H27l-7.2,23.3l-6.1-23.1h-11l11.7,38.4h9.7l7.5-23.4l7.3,23.4h9.8l11.9-38.4H49.9
			L43.6,191.5z M87.3,167.5c-6.4-0.3-10,3.1-12.2,8.4v-7.7H64.3v38.2h10.8v-14.1c0-9.1,4.4-13.5,11.6-13.5h0.6V167.5z M105.3,167.8
			c-6.5,0-10.6,1.2-14.8,3.1l2.7,8.3c3.5-1.3,6.4-2.1,10.5-2.1c5.4,0,8.2,2.5,8.2,7v0.6c-2.7-0.9-5.5-1.6-9.3-1.6
			c-9,0-15.4,3.8-15.4,12.2v0.1c0,7.5,5.9,11.7,13.1,11.7c5.3,0,8.9-1.9,11.5-4.8v4.1h10.5v-22.1c0-5.1-1.3-9.3-4.1-12.2
			C115.4,169.4,111.2,167.8,105.3,167.8z M112,193c0,3.9-3.4,6.7-8.5,6.7c-3.5,0-5.9-1.7-5.9-4.6v-0.1c0-3.4,2.8-5.3,7.5-5.3
			c2.6,0,5.1,0.6,6.9,1.4V193z M151.4,167.5c-5.6,0-9.3,2.6-11.9,6.2v-19.3l-10.8,2.1v49.8h10.8v-5c2.6,3.1,6.1,5.7,11.9,5.7
			c9,0,17.4-7,17.4-19.7v-0.1C168.8,174.5,160.3,167.5,151.4,167.5z M158,187.4c0,6.4-4.3,10.5-9.3,10.5s-9.3-4.2-9.3-10.5v-0.1
			c0-6.3,4.2-10.5,9.3-10.5s9.3,4.2,9.3,10.5V187.4z M174.4,206.4h10.8v-33.6h-10.8V206.4z M174.2,168.6h11.4V159l-11.4,2.1V168.6z
			 M214.2,177.5v-9.3h-9v-9.8l-10.8,2.1v7.6h-4.6v9.3h4.6v18.1c0,8.8,4.5,11.5,11.1,11.5c3.6,0,6.3-0.9,8.5-2.2v-8.7
			c-1.6,0.9-3.3,1.4-5.3,1.4c-2.4,0-3.5-1.2-3.5-3.7v-16.3H214.2z"/>
	</g>
</g>
</svg>
