<?xml version="1.0" encoding="utf-8"?>
<!-- Generator: Adobe Illustrator 20.1.0, SVG Export Plug-In . SVG Version: 6.00 Build 0)  -->
<svg version="1.1" id="ICON_1_" xmlns="http://www.w3.org/2000/svg" xmlns:xlink="http://www.w3.org/1999/xlink" x="0px" y="0px"
	 viewBox="0 0 94.6 209.8" style="enable-background:new 0 0 94.6 209.8;" xml:space="preserve">
<style type="text/css">
	.st0{fill-rule:evenodd;clip-rule:evenodd;fill:#F7567C;}
</style>
<g id="ICON">
	<g>
		<path class="st0" d="M91.1,99.2c0,0,7-50.9-23.7-62.5c-1.7-0.7-3.3-1-4.6-1.2c-8.6-2.1-15.9,9.1-17.4,21.2
			c-1.7,13.3-1.1,27.1,0.3,38.8c-3.1-0.7-8.8-0.9-12,0.4c1.4-11.8,2.1-25.7,0.3-39.2C30.5,28.9,11.1,2.4,11.3,2
			C-6,43.7,8.2,85.3,19,107.6c-2.4,3-4.7,6.8-6.4,11.4c-0.3,0.7-0.6,1.4-0.9,2.1c-4.2,10.5-8.7,21.5-10.3,25.4
			c7.8,1.7,29.3,31.6,33.2,48.9c-1.3,1.3-2.1,3.2-2.1,5.2c0,3.6,2.5,6.5,5.9,7.2v-66.9c-5-0.7-8.9-5.1-8.9-10.3
			c0-5.8,4.7-10.4,10.4-10.4c5.7,0,10.4,4.7,10.4,10.4c0,5.2-3.9,9.6-8.9,10.3v66.9c3.3-0.7,5.9-3.7,5.9-7.2c0-2.2-1-4.2-2.5-5.5
			c4.1-15.9,27.3-47.5,33.9-48.7c-1.1-2.8-6.3-15.6-11.4-28.1c-0.4-1.1-0.8-2.1-1.3-3.1c-1.5-3.6-3.7-6.7-6.1-9.3
			c3.5-7.8,7.3-17.3,10-26.8C80,90.9,91.1,99.2,91.1,99.2z M59.6,51.7c-4.2-9.4,0.8-14.6,10.1-9c19,11.5,18.7,47.4,18.7,47.4
			S70,74.8,59.6,51.7z"/>
	</g>
</g>
</svg>
