<svg id="Layer_1" data-name="Layer 1" xmlns="http://www.w3.org/2000/svg" viewBox="0 0 831 768"><defs><style>.cls-1{fill:#27deee;opacity:0.1;}.cls-2{fill:#222a72;}.cls-3{fill:#313f8c;}.cls-4{fill:#141e54;}.cls-5{fill:#87f9f9;}.cls-6{fill:#f9567d;}.cls-7{fill:#dd3e6b;}.cls-8{fill:#00ccc6;}</style></defs><title>old school quill pen</title><ellipse class="cls-1" cx="399.92" cy="505.39" rx="154.97" ry="268.42" transform="translate(-107.64 902.56) rotate(-89.69)"/><ellipse class="cls-1" cx="381.39" cy="501.99" rx="107.11" ry="185.54" transform="translate(-122.66 880.65) rotate(-89.69)"/><path class="cls-2" d="M380.64,485.28c1.28,12.54-6.34,25.31-22.88,34.86-24.34,14.06-60.74,17-90.24,8.73a93.49,93.49,0,0,1-21.76-8.93c-15.76-9.1-23.55-21-23.37-32.92.09-6.07-2.72-47.6,0-61.85.48-2.48,1.12-4.13,2-4.63,9.65-5.57,25-7.54,42.73-7.61,38.8-.17,88.66,8.79,113.27,8.79h0C382.83,421.72,380,478.73,380.64,485.28Z"/><path class="cls-2" d="M357.76,458.4C329,475,283.5,476,252.33,461.6c-2.27-1.05-4.47-2.18-6.57-3.4-15.81-9.12-23.6-21.11-23.36-33,.22-11.49,7.89-22.9,23-31.63a84.91,84.91,0,0,1,12-5.69c30.7-11.82,72.7-9.84,100,5.89,13.56,7.83,21.23,17.78,23,28h0C382.64,434.84,375.11,448.38,357.76,458.4Z"/><path class="cls-3" d="M267.52,528.87a93.49,93.49,0,0,1-21.76-8.93c-15.76-9.1-23.55-21-23.37-32.92.09-6.07-2.72-47.6,0-61.85.22-11.49,7.89-22.9,23-31.63a84.91,84.91,0,0,1,12-5.69l9.66,25.08,2.51,6.51s-13.24,8-16.05,17.65c-1,3.5-1.3,13.35-1.24,24.51.09,19.7,1.24,43.44,1.24,43.44S255.28,522.86,267.52,528.87Z"/><ellipse class="cls-3" cx="301.75" cy="395.23" rx="30.59" ry="52.99" transform="translate(-95.12 694.83) rotate(-89.69)"/><ellipse class="cls-2" cx="301.78" cy="391.28" rx="27.2" ry="47.11" transform="translate(-91.12 690.93) rotate(-89.69)"/><ellipse class="cls-4" cx="301.8" cy="396.53" rx="24.01" ry="41.59" transform="translate(-96.36 696.17) rotate(-89.69)"/><path class="cls-4" d="M245.76,458.2s52.49,29.63,112,0v40.93s-54.52,34.91-112.35,0Z"/><path class="cls-2" d="M405.66,513.09A31,31,0,0,0,418.11,516c4.45.25,9,0,13.72-.09a85.79,85.79,0,0,1,14.21.78,48.16,48.16,0,0,1,13.87,4,34.43,34.43,0,0,1,6.26,3.83,17.85,17.85,0,0,1,5,5.79,10.88,10.88,0,0,1,.85,8,9.15,9.15,0,0,1-2.14,3.59,13,13,0,0,1-3.16,2.36c-4.43,2.38-9.05,3.05-11.81,6.24a12,12,0,0,0-2.94,5.4,7.88,7.88,0,0,0,.81,5.78,14.22,14.22,0,0,0,4.61,4.36c1.91,1.22,3.89,2.37,5.91,3.42A73.15,73.15,0,0,0,476,574.59a74.66,74.66,0,0,0,27.22,2.75,70.86,70.86,0,0,0,13.56-2.41,40.79,40.79,0,0,0,12.38-5.9c7.49-5.41,13.57-12.57,20.74-18.44-7,6-12.92,13.29-20.37,18.95a41.69,41.69,0,0,1-12.47,6.28,72.09,72.09,0,0,1-13.72,2.77,76.13,76.13,0,0,1-27.85-2.2,73.45,73.45,0,0,1-13.18-4.94c-2.12-1-4.17-2.16-6.2-3.39a16.56,16.56,0,0,1-5.47-5,10.44,10.44,0,0,1-1.28-7.63,14.73,14.73,0,0,1,3.46-6.75,15.07,15.07,0,0,1,2.89-2.51,21.33,21.33,0,0,1,3.29-1.74,66.27,66.27,0,0,0,6.17-2.81,7.32,7.32,0,0,0,3.7-4.17,7.55,7.55,0,0,0-.77-5.48c-1.89-3.48-5.87-6-9.79-7.8a44,44,0,0,0-12.83-3.37,81.47,81.47,0,0,0-13.54-.44c-4.57.19-9.25.56-14.07.4a35.64,35.64,0,0,1-14.47-3.16,2.5,2.5,0,1,1,2.17-4.51l0,0Z"/><polygon class="cls-5" points="419.8 463.19 399.92 479.43 402.03 516.92 430.89 494.09 429.32 467.82 419.8 463.19"/><path class="cls-2" d="M416.25,478.8a5.07,5.07,0,0,0-5.6,3.42,6.66,6.66,0,0,0,1.76,6.6,5,5,0,0,0,2.17,1.38,4.46,4.46,0,0,0,4.8-2.08,6.5,6.5,0,0,0,.44-5.42,4.94,4.94,0,0,1-.43-1.79,3.69,3.69,0,0,1,.42-1.33c1.75-3.78,4.17-7.08,6.13-10.7-2.87-1.85-3.84-.3-5.11,2.26C420.43,472,417.07,479,416.25,478.8Z"/><path class="cls-6" d="M426.62,457.75s-16.13-24.36-.37-56.1l10.66,30.49-.38-39.42L441.9,410l-.12-30.4S536.91,261.48,620,226.42l5.07,32.11,8.74-39.11s78-34.4,101.13-29.2,16.14,30,1.63,43.68-60.31,54.28-60.31,54.28l-36.35.47,15.73,10.68S550.31,368.61,514.31,412.9,426.62,457.75,426.62,457.75Z"/><path class="cls-7" d="M486,438.25s-25.67,2.06-27.69.4S524.9,366,524.9,366l27.82-4.39-19.55-4.37,41.56-36.84,25.69-4.05-17.1-4.76,91-70.95S526,329,469.22,408.91l-39.16,56.18S463.18,457.2,486,438.25Z"/><path class="cls-2" d="M692.42,229.47c-1.09.64-71.23,41.92-142.8,104.15C515.93,362.91,461.94,416,430.06,465.09q-2.06,3.15-4,6.28l-7.51-4.83c1-1.65,2.35-3.73,4-6.23,15.8-23.46,62.43-83.95,171.59-171.17C594.22,289.14,649.66,247.63,692.42,229.47Z"/><path class="cls-5" d="M434.87,472.59a3.71,3.71,0,0,1-5.13,1.12l-3.64-2.34-7.51-4.83-1.19-.76a3.71,3.71,0,1,1,4-6.25l1.22.78,7.43,4.78,3.69,2.37A3.71,3.71,0,0,1,434.87,472.59Z"/><polygon class="cls-8" points="426.1 471.37 425.42 492.75 403.79 511.37 401.15 501.24 402.03 516.92 430.89 494.09 429.74 473.71 426.1 471.37"/></svg>