<svg id="Layer_1" data-name="Layer 1" xmlns="http://www.w3.org/2000/svg" xmlns:xlink="http://www.w3.org/1999/xlink" viewBox="0 0 831 768"><defs><style>.cls-1{fill:#28dfec;}.cls-1,.cls-15,.cls-16{fill-rule:evenodd;}.cls-1,.cls-5{opacity:0.1;}.cls-2{fill:url(#linear-gradient);}.cls-3{fill:#f9567d;}.cls-4{fill:#dd3e6b;}.cls-5{fill:#27deee;}.cls-6{fill:#222a72;}.cls-15,.cls-7{fill:#28e0e8;}.cls-8{fill:#151f5b;}.cls-9{fill:#fff;opacity:0.34;isolation:isolate;}.cls-10{fill:url(#linear-gradient-2);}.cls-11{fill:url(#linear-gradient-3);}.cls-12{fill:url(#linear-gradient-4);}.cls-13{fill:#161e51;}.cls-14{fill:url(#linear-gradient-5);}.cls-16{fill:#64f0f4;}</style><linearGradient id="linear-gradient" x1="276.54" y1="358.97" x2="303.22" y2="358.97" gradientUnits="userSpaceOnUse"><stop offset="0" stop-color="#ecc4d7"/><stop offset="0.42" stop-color="#efd4d1"/><stop offset="1" stop-color="#f2eac9"/></linearGradient><linearGradient id="linear-gradient-2" x1="337.66" y1="397.46" x2="379.93" y2="397.46" xlink:href="#linear-gradient"/><linearGradient id="linear-gradient-3" x1="300.93" y1="513.91" x2="349.26" y2="513.91" gradientTransform="matrix(1, 0, 0, -1, 0, 770)" xlink:href="#linear-gradient"/><linearGradient id="linear-gradient-4" x1="328.11" y1="506.06" x2="333.99" y2="506.06" gradientTransform="matrix(1, 0, 0, -1, 0, 770)" xlink:href="#linear-gradient"/><linearGradient id="linear-gradient-5" x1="317.03" y1="491.46" x2="291.46" y2="455.86" gradientTransform="matrix(1, 0, 0, -1, 0, 770)" gradientUnits="userSpaceOnUse"><stop offset="0" stop-color="#ecc4d7"/><stop offset="0.42" stop-color="#785757"/><stop offset="1" stop-color="#f2eac9"/></linearGradient></defs><title>graphic floating</title><path class="cls-1" d="M644.93,539.53,391.81,393a21,21,0,0,1-10.45-18.12V80.47A16.49,16.49,0,0,1,406.11,66.2L661.05,213.78a21,21,0,0,1,10.45,18.13v292.3A17.7,17.7,0,0,1,644.93,539.53Z"/><path class="cls-1" d="M657.25,539.53,404.13,393a20.93,20.93,0,0,1-10.45-18.12V80.47A16.48,16.48,0,0,1,418.42,66.2l255,147.58a21,21,0,0,1,10.45,18.13v292.3A17.7,17.7,0,0,1,657.25,539.53Z"/><path class="cls-2" d="M280,332.91A62.26,62.26,0,0,0,276.9,344c-1.84,12.34,3.72,24.44,9.13,35.68,2.49,5.16,5,10.39,8.79,14.7,8.1-11.17,8.93-25.95,8.19-39.72-.38-6.95-1.13-14.07-4.3-20.27-2.23-4.36-6.14-8.76-10.89-10.41C282,321.91,281.46,328.55,280,332.91Z"/><path class="cls-3" d="M276.62,331.74a9.5,9.5,0,0,0,.13,3.33,7,7,0,0,0,1.63,2.63,55.56,55.56,0,0,0,10.43,9.35,1.53,1.53,0,0,0,1,.39,1.87,1.87,0,0,0,1.14-.91c2-2.79,2.83-6.57,3.51-10.19q1.68-9,2.93-18c1.31-9.52,2.18-19.71-1-28.13-1.24-3.25-3.89-8.15-6.81-6-2.51,1.86-4.95,11.39-6,14.58A134,134,0,0,0,276.62,331.74Z"/><path class="cls-4" d="M276.62,331.74a9.5,9.5,0,0,0,.13,3.33,7,7,0,0,0,1.63,2.63,55.56,55.56,0,0,0,10.43,9.35,1.53,1.53,0,0,0,1,.39,1.87,1.87,0,0,0,1.14-.91c2-2.79,2.83-6.57,3.51-10.19q1.68-9,2.93-18c1.31-9.52,2.18-19.71-1-28.13-1.24-3.25-3.89-8.15-6.81-6-2.51,1.86-4.95,11.39-6,14.58A134,134,0,0,0,276.62,331.74Z"/><ellipse class="cls-5" cx="323.04" cy="621.71" rx="94.41" ry="163.54" transform="translate(-300.4 941.38) rotate(-89.69)"/><path class="cls-5" d="M274.82,566.62c-10,3.36-21.58,9.72-21.63,20.31,0,6.46,4.48,12,9.17,16.44a188.59,188.59,0,0,0,18.83,15.07c12.28,8.95,25.18,18,40.1,20.8,23,4.39,48.27-8.56,58.13-29.85,1.14-2.45,2.11-5.11,1.84-7.8-.53-5.18-5.31-8.76-9.78-11.43-16.28-9.73-33.82-15.86-52.28-19.83C302.91,566.82,291.93,560.9,274.82,566.62Z"/><path class="cls-6" d="M338.43,591.86s24.08-7.05,29.27-4.52,1.28,12.59-9.9,19-17.18,10.45-23.11,12.07-15.25,1.8-16.66-4.05-.76-13.06.76-15.51S338.43,591.86,338.43,591.86Z"/><path class="cls-6" d="M310.36,569.75s24.08-7,29.28-4.52,1.28,12.59-9.9,19-17.18,10.45-23.11,12.07-15.25,1.8-16.66-4.05-.76-13.06.75-15.51S310.36,569.75,310.36,569.75Z"/><path class="cls-7" d="M307.69,571s21.46-6.29,26.11-4,1.15,11.23-8.8,17-15.33,9.32-20.63,10.73-13.58,1.64-14.84-3.58a22.89,22.89,0,0,1,.68-13.84C291.55,574.92,307.69,571,307.69,571Z"/><path class="cls-8" d="M286.64,409.94c-.63,11.39,3,41,2.42,56.21s-.15,14.07-1,36.17,1.85,75.5,5,78.59,17.63,4.23,17.81-6,2.61-75.19,4.39-81.4a109.12,109.12,0,0,0,5.22-32.46A367.32,367.32,0,0,1,323,424.15s-6-16.53-18.28-17.81S286.64,409.94,286.64,409.94Z"/><path class="cls-7" d="M338.43,589.42s24.08-7,29.27-4.52,1.28,12.59-9.9,19S340.62,614.39,334.69,616s-15.25,1.8-16.66-4-.76-13.06.76-15.52S338.43,589.42,338.43,589.42Z"/><path class="cls-6" d="M358.8,418.85a37.23,37.23,0,0,1-.24,5.07c-1.23,25-5.22,65.94-6.48,75-1.33,9.66-10.44,33.4-11.64,57.22-1.1,21.47-.84,34.79-3.09,40.51h0a10.47,10.47,0,0,1-.73,1.46h0c-3.05,4.52-10.65,4.88-15.17,1.83s-6.9-56.86-7-75.48,5.72-35.83,2-48.42a406.89,406.89,0,0,1-11.62-56.36,308,308,0,0,1,31.62-5.56C346.76,413.29,358.8,418.85,358.8,418.85Z"/><path class="cls-3" d="M363.53,318.81a22.69,22.69,0,0,1-.45,4.48c-.76,4.78-1.41,9.69-1.91,14.62-1.28,12.51-1.85,25.29-2,37-.4,26.48,1.17,47.21,1.17,47.21s-15.72,7-40.67,5l-.7-.05c-25.36-2.17-32.41-16.35-32.41-16.35s3.16-28.49,3.79-50.22c.17-5.89-.79-13-2-20.53-1.11-6.91-2.44-14.22-3.31-21.33-1.72-13.82-1.73-26.95,4.82-35.21a25.37,25.37,0,0,1,1.78-2,18.65,18.65,0,0,1,13.47-5.09l1.26,0,.68,0c.59.05,1.19.11,1.78.19,12.35,1.56,25.38,10.18,30.16,12.95,9.56,5.51,16.37,10.45,20.29,16A22.71,22.71,0,0,1,363.53,318.81Z"/><path class="cls-4" d="M335.33,427.24c-1.55-.06-14.13-.16-15.69-.14-6.09.08-12.21.51-18.16-.71-7.48-1.53-15-6.61-16.18-14.15-.49-3.09.14-6.23.7-9.3a222.81,222.81,0,0,0,2.31-63q-1.14-10.74-3.31-21.33c-1.72-13.82-1.73-26.95,4.82-35.21a25.37,25.37,0,0,1,1.78-2c3.82-3.69,18.34,0,22.16,2.64,7.26,5,23.69,9.18,23.9,17.41.5,19.17-2.37,39.71-4.65,58.62C330.2,383.39,330.28,404.35,335.33,427.24Z"/><polygon class="cls-9" points="355.09 423.92 352.27 341.62 360.31 350.45 358.82 380.43 360.36 422.12 355.09 423.92"/><path class="cls-10" d="M366.12,447.84a230.36,230.36,0,0,1-22.29-45.9,89.35,89.35,0,0,1-4.21-15.19A110.2,110.2,0,0,1,338.5,372l-.84-26.35a57.86,57.86,0,0,1,19.93-4c-1,5.47-.87,11.07-.73,16.63.28,12,.58,24,3.09,35.75,2.79,13,4,23.58,9.38,35.7,1,2.21,6.74,5.39,8.21,7.33.38.51.7,1.4.11,1.67a1.09,1.09,0,0,1-.67,0,11.55,11.55,0,0,1-2.49-.89c.4,4.08,3.48,7.33,5.1,11.1a3,3,0,0,1,.32,1.59,2.54,2.54,0,0,1-1,1.44,7.1,7.1,0,0,1-7.36.63A12.08,12.08,0,0,1,366.12,447.84Z"/><path class="cls-11" d="M346.18,276c-1.25,2.61-10.16,2.32-11.31,2.3h-.13V287h0a19.53,19.53,0,0,1-6.74,1,34.27,34.27,0,0,1-3.5-.15,18.8,18.8,0,0,1-4-.79c-5.22-1.51-9.51-4.57-9.64-5.66s0-7.84,0-7.84l-2.24-3.79c-3.74-6.59-4.37-14.39-7.16-21.43-1.72-5.85,1.59-12.33,1.59-12.33,0-2.31,6.65-.61,7.84-2.59,2-3.82,12.77-12,25.36-8.33s8.09,9.45,8.09,9.45a47.06,47.06,0,0,1,3.16,7.55,71.09,71.09,0,0,1-.62,8.62,24.79,24.79,0,0,0,2.09,6.71C350.07,260.35,347.57,273.41,346.18,276Z"/><path class="cls-6" d="M349.85,231.85a9,9,0,0,1-.63,2.78c-1.58,3.92-5.45,6-8.78,8.18-4.45,3-6.73,6.26-9.17,11a6.28,6.28,0,0,0,1.2,7.34,3.61,3.61,0,0,1-1.49,2.19,8.34,8.34,0,0,0-4.8-5c-3.87-1.13-3.06,3.37-2.93,4a9.15,9.15,0,0,0,4.21,6.37,5.8,5.8,0,0,1-4,2.61,22.8,22.8,0,0,1-3.78.34h-1.1a19.64,19.64,0,0,0-5.07,1.1c-.6.21-1.2.44-1.77.7a1.8,1.8,0,0,1-1.26.26.92.92,0,0,1-.39-.23l-.23-.21a14.61,14.61,0,0,1-3.19-4.8c-2.49-6.13-4.46-12.35-6.56-18.64-1.18-3.54-2.32-7.63-.38-10.82,1.32-2.19,3.79-3.38,5.57-5.23,2.21-2.29,3.23-5.45,5-8.09,4.84-7.16,14.6-9.39,23.17-8.32,4.48.56,9,1.94,12.34,5A12.26,12.26,0,0,1,349.85,231.85Z"/><path class="cls-12" d="M328.34,263.53a1.11,1.11,0,0,1-.18-.36,1.85,1.85,0,0,1,0-.47,1.52,1.52,0,0,0-.6-1.31,2.89,2.89,0,0,0-1.36-.63c-.36,0-.86,0-1.07.24a1.07,1.07,0,0,0,0,.86,14,14,0,0,0,.68,2.46,4.37,4.37,0,0,0,1.57,2,6,6,0,0,0,1.75.67,1.63,1.63,0,0,0,1.43,0,1.72,1.72,0,0,0,0-2.29C329.78,264,329,264.21,328.34,263.53Z"/><path class="cls-13" d="M319.65,271.76l-.32.23a3.9,3.9,0,0,1-1.75.4,35.7,35.7,0,0,0-4.1.55c-1.15.18-2.27.44-3.42.73l-.23-.21a14.65,14.65,0,0,1-3.19-4.81,25,25,0,0,0-2-4.7c-.6-.85-1.61-7.29-2.48-7.86.93-.24-2.95-9.31-2-9.44,2.13-.76,11.27,4.81,13.51,4.5,2.25.4,2.29,10.45,3.08,12.59a29.63,29.63,0,0,0,2.9,6,2.58,2.58,0,0,1,.42.74A1.18,1.18,0,0,1,319.65,271.76Z"/><path class="cls-14" d="M320.54,287.12c-5.23-1.52-9.51-4.57-9.64-5.67v-7.84l8.83-1.93A104.84,104.84,0,0,0,320.54,287.12Z"/><path class="cls-3" d="M333.29,323.51S331,354.77,333,360.12s27.35-1.69,27.35-1.69l3.17-43.64s-7.21-17.75-11.26-14.08C344.71,307.56,333.36,319,333.29,323.51Z"/><polygon class="cls-15" points="412.83 224.08 446.54 243.54 446.54 363.38 440.22 367.32 412.83 343.92 406.51 228.02 412.83 224.08"/><polygon class="cls-15" points="599.2 330.83 632.91 350.29 632.91 470.13 626.59 474.07 599.2 450.67 592.88 334.77 599.2 330.83"/><polygon class="cls-15" points="462.43 233.29 496.14 252.75 496.14 392.02 489.82 395.96 462.43 372.55 456.11 237.23 462.43 233.29"/><polygon class="cls-15" points="506.83 155.94 539.95 175.06 539.95 417.31 533.63 421.25 506.83 398.19 500.51 159.89 506.83 155.94"/><polygon class="cls-15" points="555.54 333.05 589.25 352.51 589.25 445.78 582.94 449.72 555.54 426.31 549.22 336.99 555.54 333.05"/><polygon class="cls-16" points="406.51 228.02 440.22 247.49 440.22 367.32 406.51 347.86 406.51 228.02"/><polygon class="cls-16" points="592.88 334.77 626.59 354.23 626.59 474.07 592.88 454.61 592.88 334.77"/><polygon class="cls-16" points="456.11 237.23 489.82 256.7 489.82 395.96 456.11 376.5 456.11 237.23"/><polygon class="cls-16" points="500.51 159.89 533.63 179.01 533.63 421.25 500.51 402.13 500.51 159.89"/><polygon class="cls-16" points="549.22 336.99 582.94 356.46 582.94 449.72 549.22 430.25 549.22 336.99"/><path class="cls-4" d="M352.27,320.69c-2.4-17.77-17.1-24.43-23.66-29-4,11-2.67,20.9,2.08,31.58,1.58,3.54,3.62,6.93,4.48,10.72a40.89,40.89,0,0,1,.6,9,153.64,153.64,0,0,0,.82,15.46,3.89,3.89,0,0,0,1,2.62,3.55,3.55,0,0,0,1.79.69,21.76,21.76,0,0,0,10.36-.54c3-1,2.69-3,2.81-5.9q.51-11.83,1-23.67C353.76,327.14,352.87,325.14,352.27,320.69Z"/></svg>